G04 #@! TF.GenerationSoftware,KiCad,Pcbnew,5.0.0-rc1-44a33f2~62~ubuntu16.04.1*
G04 #@! TF.CreationDate,2018-03-08T22:41:24+01:00*
G04 #@! TF.ProjectId,midi314,6D6964693331342E6B696361645F7063,rev?*
G04 #@! TF.SameCoordinates,Original*
G04 #@! TF.FileFunction,Copper,L1,Top,Signal*
G04 #@! TF.FilePolarity,Positive*
%FSLAX46Y46*%
G04 Gerber Fmt 4.6, Leading zero omitted, Abs format (unit mm)*
G04 Created by KiCad (PCBNEW 5.0.0-rc1-44a33f2~62~ubuntu16.04.1) date Thu Mar  8 22:41:24 2018*
%MOMM*%
%LPD*%
G01*
G04 APERTURE LIST*
%ADD10C,1.800000*%
%ADD11C,4.000000*%
%ADD12C,2.200000*%
%ADD13O,1.600000X1.600000*%
%ADD14R,1.600000X1.600000*%
%ADD15C,0.800000*%
%ADD16C,0.250000*%
G04 APERTURE END LIST*
D10*
X91520000Y-114300000D03*
X94020000Y-114300000D03*
X96520000Y-114300000D03*
D11*
X89620000Y-107300000D03*
X98420000Y-107300000D03*
X117470000Y-107300000D03*
X108670000Y-107300000D03*
D10*
X115570000Y-114300000D03*
X113070000Y-114300000D03*
X110570000Y-114300000D03*
X129620000Y-114300000D03*
X132120000Y-114300000D03*
X134620000Y-114300000D03*
D11*
X127720000Y-107300000D03*
X136520000Y-107300000D03*
X155570000Y-107300000D03*
X146770000Y-107300000D03*
D10*
X153670000Y-114300000D03*
X151170000Y-114300000D03*
X148670000Y-114300000D03*
X72470000Y-114300000D03*
X74970000Y-114300000D03*
X77470000Y-114300000D03*
D11*
X70570000Y-107300000D03*
X79370000Y-107300000D03*
D12*
X223520000Y-134620000D03*
X229870000Y-132080000D03*
D13*
X341630000Y-116840000D03*
X313690000Y-101600000D03*
X339090000Y-116840000D03*
X316230000Y-101600000D03*
X336550000Y-116840000D03*
X318770000Y-101600000D03*
X334010000Y-116840000D03*
X321310000Y-101600000D03*
X331470000Y-116840000D03*
X323850000Y-101600000D03*
X328930000Y-116840000D03*
X326390000Y-101600000D03*
X326390000Y-116840000D03*
X328930000Y-101600000D03*
X323850000Y-116840000D03*
X331470000Y-101600000D03*
X321310000Y-116840000D03*
X334010000Y-101600000D03*
X318770000Y-116840000D03*
X336550000Y-101600000D03*
X316230000Y-116840000D03*
X339090000Y-101600000D03*
X313690000Y-116840000D03*
D14*
X341630000Y-101600000D03*
D12*
X318770000Y-134620000D03*
X325120000Y-132080000D03*
X71120000Y-134620000D03*
X77470000Y-132080000D03*
X90170000Y-134620000D03*
X96520000Y-132080000D03*
X109220000Y-134620000D03*
X115570000Y-132080000D03*
X128270000Y-134620000D03*
X134620000Y-132080000D03*
X147320000Y-134620000D03*
X153670000Y-132080000D03*
X166370000Y-134620000D03*
X172720000Y-132080000D03*
X185420000Y-134620000D03*
X191770000Y-132080000D03*
X80645000Y-153670000D03*
X86995000Y-151130000D03*
X99695000Y-153670000D03*
X106045000Y-151130000D03*
X118745000Y-153670000D03*
X125095000Y-151130000D03*
X137795000Y-153670000D03*
X144145000Y-151130000D03*
X156845000Y-153670000D03*
X163195000Y-151130000D03*
X175895000Y-153670000D03*
X182245000Y-151130000D03*
X194945000Y-153670000D03*
X201295000Y-151130000D03*
D13*
X83820000Y-132080000D03*
D14*
X83820000Y-142240000D03*
D13*
X102870000Y-132080000D03*
D14*
X102870000Y-142240000D03*
D13*
X121920000Y-132080000D03*
D14*
X121920000Y-142240000D03*
D13*
X140970000Y-132080000D03*
D14*
X140970000Y-142240000D03*
D13*
X160020000Y-132080000D03*
D14*
X160020000Y-142240000D03*
D13*
X179070000Y-132080000D03*
D14*
X179070000Y-142240000D03*
D13*
X198120000Y-132080000D03*
D14*
X198120000Y-142240000D03*
D13*
X93345000Y-151130000D03*
D14*
X93345000Y-161290000D03*
D13*
X112395000Y-151130000D03*
D14*
X112395000Y-161290000D03*
D13*
X131445000Y-151130000D03*
D14*
X131445000Y-161290000D03*
D13*
X150495000Y-151130000D03*
D14*
X150495000Y-161290000D03*
D13*
X169545000Y-151130000D03*
D14*
X169545000Y-161290000D03*
D13*
X188595000Y-151130000D03*
D14*
X188595000Y-161290000D03*
D13*
X207645000Y-151130000D03*
D14*
X207645000Y-161290000D03*
D13*
X83820000Y-170180000D03*
D14*
X83820000Y-180340000D03*
D13*
X102870000Y-170180000D03*
D14*
X102870000Y-180340000D03*
D13*
X121920000Y-170180000D03*
D14*
X121920000Y-180340000D03*
D13*
X140970000Y-170180000D03*
D14*
X140970000Y-180340000D03*
D13*
X160020000Y-170180000D03*
D14*
X160020000Y-180340000D03*
D13*
X179070000Y-170180000D03*
D14*
X179070000Y-180340000D03*
D13*
X198120000Y-170180000D03*
D14*
X198120000Y-180340000D03*
D13*
X217170000Y-132080000D03*
D14*
X217170000Y-142240000D03*
D13*
X236220000Y-132080000D03*
D14*
X236220000Y-142240000D03*
D13*
X255270000Y-132080000D03*
D14*
X255270000Y-142240000D03*
D13*
X274320000Y-132080000D03*
D14*
X274320000Y-142240000D03*
D13*
X293370000Y-132080000D03*
D14*
X293370000Y-142240000D03*
D13*
X312420000Y-132080000D03*
D14*
X312420000Y-142240000D03*
D13*
X331470000Y-132080000D03*
D14*
X331470000Y-142240000D03*
D13*
X226695000Y-151130000D03*
D14*
X226695000Y-161290000D03*
D13*
X245745000Y-151130000D03*
D14*
X245745000Y-161290000D03*
D13*
X264795000Y-151130000D03*
D14*
X264795000Y-161290000D03*
D13*
X283845000Y-151130000D03*
D14*
X283845000Y-161290000D03*
D13*
X302895000Y-151130000D03*
D14*
X302895000Y-161290000D03*
D13*
X321945000Y-151130000D03*
D14*
X321945000Y-161290000D03*
D13*
X340995000Y-151130000D03*
D14*
X340995000Y-161290000D03*
D13*
X217170000Y-170180000D03*
D14*
X217170000Y-180340000D03*
D13*
X236220000Y-170180000D03*
D14*
X236220000Y-180340000D03*
D13*
X255270000Y-170180000D03*
D14*
X255270000Y-180340000D03*
D13*
X274320000Y-170180000D03*
D14*
X274320000Y-180340000D03*
D13*
X293370000Y-170180000D03*
D14*
X293370000Y-180340000D03*
D13*
X312420000Y-170180000D03*
D14*
X312420000Y-180340000D03*
D13*
X331470000Y-170180000D03*
D14*
X331470000Y-180340000D03*
D12*
X71120000Y-172720000D03*
X77470000Y-170180000D03*
X90170000Y-172720000D03*
X96520000Y-170180000D03*
X109220000Y-172720000D03*
X115570000Y-170180000D03*
X128270000Y-172720000D03*
X134620000Y-170180000D03*
X147320000Y-172720000D03*
X153670000Y-170180000D03*
X166370000Y-172720000D03*
X172720000Y-170180000D03*
X185420000Y-172720000D03*
X191770000Y-170180000D03*
X204470000Y-134620000D03*
X210820000Y-132080000D03*
X242570000Y-134620000D03*
X248920000Y-132080000D03*
X261620000Y-134620000D03*
X267970000Y-132080000D03*
X280670000Y-134620000D03*
X287020000Y-132080000D03*
X299720000Y-134620000D03*
X306070000Y-132080000D03*
X213995000Y-153670000D03*
X220345000Y-151130000D03*
X233045000Y-153670000D03*
X239395000Y-151130000D03*
X252095000Y-153670000D03*
X258445000Y-151130000D03*
X271145000Y-153670000D03*
X277495000Y-151130000D03*
X290195000Y-153670000D03*
X296545000Y-151130000D03*
X309245000Y-153670000D03*
X315595000Y-151130000D03*
X328295000Y-153670000D03*
X334645000Y-151130000D03*
X204470000Y-172720000D03*
X210820000Y-170180000D03*
X223520000Y-172720000D03*
X229870000Y-170180000D03*
X242570000Y-172720000D03*
X248920000Y-170180000D03*
X261620000Y-172720000D03*
X267970000Y-170180000D03*
X280670000Y-172720000D03*
X287020000Y-170180000D03*
X299720000Y-172720000D03*
X306070000Y-170180000D03*
X318770000Y-172720000D03*
X325120000Y-170180000D03*
D15*
X223520000Y-127000000D03*
X328930000Y-127000000D03*
X323850000Y-125730000D03*
X224790000Y-125730000D03*
X226060000Y-124460000D03*
X306070000Y-124460000D03*
X227330000Y-123190000D03*
X288290000Y-123190000D03*
X270510000Y-121920000D03*
X228600000Y-121920000D03*
X252730000Y-120650000D03*
X229870000Y-120650000D03*
X237490000Y-119380000D03*
D16*
X208280000Y-127000000D02*
X223520000Y-127000000D01*
X198120000Y-137160000D02*
X208280000Y-127000000D01*
X198120000Y-142240000D02*
X198120000Y-137160000D01*
X331470000Y-137160000D02*
X328930000Y-134620000D01*
X328930000Y-134620000D02*
X328930000Y-127000000D01*
X331470000Y-141190000D02*
X331470000Y-137160000D01*
X331470000Y-142240000D02*
X331470000Y-141190000D01*
X340995000Y-165735000D02*
X340995000Y-161290000D01*
X331470000Y-175260000D02*
X340995000Y-165735000D01*
X331470000Y-180340000D02*
X331470000Y-175260000D01*
X207645000Y-165735000D02*
X207645000Y-161290000D01*
X198120000Y-175260000D02*
X207645000Y-165735000D01*
X198120000Y-180340000D02*
X198120000Y-175260000D01*
X339090000Y-159385000D02*
X340995000Y-161290000D01*
X339090000Y-150910000D02*
X339090000Y-159385000D01*
X331470000Y-142240000D02*
X331470000Y-143290000D01*
X331470000Y-143290000D02*
X339090000Y-150910000D01*
X205740000Y-159385000D02*
X207645000Y-161290000D01*
X205740000Y-150910000D02*
X205740000Y-159385000D01*
X198120000Y-142240000D02*
X198120000Y-143290000D01*
X198120000Y-143290000D02*
X205740000Y-150910000D01*
X322580000Y-127000000D02*
X323850000Y-125730000D01*
X190500000Y-125730000D02*
X224790000Y-125730000D01*
X179070000Y-137160000D02*
X190500000Y-125730000D01*
X179070000Y-142240000D02*
X179070000Y-137160000D01*
X312420000Y-137160000D02*
X322580000Y-127000000D01*
X312420000Y-142240000D02*
X312420000Y-137160000D01*
X321945000Y-165735000D02*
X321945000Y-161290000D01*
X312420000Y-175260000D02*
X321945000Y-165735000D01*
X312420000Y-180340000D02*
X312420000Y-175260000D01*
X179070000Y-180340000D02*
X179070000Y-175260000D01*
X188595000Y-165735000D02*
X188595000Y-161290000D01*
X179070000Y-175260000D02*
X188595000Y-165735000D01*
X320040000Y-159385000D02*
X321945000Y-161290000D01*
X320040000Y-150910000D02*
X320040000Y-159385000D01*
X312420000Y-142240000D02*
X312420000Y-143290000D01*
X312420000Y-143290000D02*
X320040000Y-150910000D01*
X186690000Y-159385000D02*
X188595000Y-161290000D01*
X186690000Y-150910000D02*
X186690000Y-159385000D01*
X179070000Y-142240000D02*
X179070000Y-143290000D01*
X179070000Y-143290000D02*
X186690000Y-150910000D01*
X179070000Y-124460000D02*
X226060000Y-124460000D01*
X172720000Y-124460000D02*
X179070000Y-124460000D01*
X160020000Y-137160000D02*
X172720000Y-124460000D01*
X160020000Y-142240000D02*
X160020000Y-137160000D01*
X303530000Y-127000000D02*
X306070000Y-124460000D01*
X293370000Y-137160000D02*
X303530000Y-127000000D01*
X293370000Y-142240000D02*
X293370000Y-137160000D01*
X302895000Y-165735000D02*
X302895000Y-161290000D01*
X293370000Y-175260000D02*
X302895000Y-165735000D01*
X293370000Y-180340000D02*
X293370000Y-175260000D01*
X169545000Y-165735000D02*
X169545000Y-161290000D01*
X160020000Y-175260000D02*
X169545000Y-165735000D01*
X160020000Y-180340000D02*
X160020000Y-175260000D01*
X300990000Y-159385000D02*
X302895000Y-161290000D01*
X300990000Y-150910000D02*
X300990000Y-159385000D01*
X293370000Y-142240000D02*
X293370000Y-143290000D01*
X293370000Y-143290000D02*
X300990000Y-150910000D01*
X167640000Y-159385000D02*
X169545000Y-161290000D01*
X167640000Y-150910000D02*
X167640000Y-159385000D01*
X160020000Y-142240000D02*
X160020000Y-143290000D01*
X160020000Y-143290000D02*
X167640000Y-150910000D01*
X154940000Y-123190000D02*
X227330000Y-123190000D01*
X146050000Y-132080000D02*
X154940000Y-123190000D01*
X140970000Y-137160000D02*
X146050000Y-132080000D01*
X140970000Y-142240000D02*
X140970000Y-137160000D01*
X284480000Y-127000000D02*
X288290000Y-123190000D01*
X274320000Y-137160000D02*
X284480000Y-127000000D01*
X274320000Y-142240000D02*
X274320000Y-137160000D01*
X283845000Y-165735000D02*
X283845000Y-161290000D01*
X274320000Y-175260000D02*
X283845000Y-165735000D01*
X274320000Y-180340000D02*
X274320000Y-175260000D01*
X150495000Y-165735000D02*
X150495000Y-161290000D01*
X140970000Y-175260000D02*
X150495000Y-165735000D01*
X140970000Y-180340000D02*
X140970000Y-175260000D01*
X281940000Y-159385000D02*
X283845000Y-161290000D01*
X281940000Y-150910000D02*
X281940000Y-159385000D01*
X274320000Y-142240000D02*
X274320000Y-143290000D01*
X274320000Y-143290000D02*
X281940000Y-150910000D01*
X148590000Y-159385000D02*
X150495000Y-161290000D01*
X148590000Y-150910000D02*
X148590000Y-159385000D01*
X140970000Y-142240000D02*
X140970000Y-143290000D01*
X140970000Y-143290000D02*
X148590000Y-150910000D01*
X265430000Y-127000000D02*
X270510000Y-121920000D01*
X191770000Y-121920000D02*
X228600000Y-121920000D01*
X149860000Y-121920000D02*
X191770000Y-121920000D01*
X137160000Y-121920000D02*
X149860000Y-121920000D01*
X121920000Y-137160000D02*
X137160000Y-121920000D01*
X121920000Y-142240000D02*
X121920000Y-137160000D01*
X255270000Y-137160000D02*
X265430000Y-127000000D01*
X255270000Y-142240000D02*
X255270000Y-137160000D01*
X264795000Y-165735000D02*
X264795000Y-161290000D01*
X255270000Y-175260000D02*
X264795000Y-165735000D01*
X255270000Y-180340000D02*
X255270000Y-175260000D01*
X131445000Y-165735000D02*
X131445000Y-161290000D01*
X121920000Y-175260000D02*
X131445000Y-165735000D01*
X121920000Y-180340000D02*
X121920000Y-175260000D01*
X262890000Y-159385000D02*
X264795000Y-161290000D01*
X262890000Y-150910000D02*
X262890000Y-159385000D01*
X255270000Y-142240000D02*
X255270000Y-143290000D01*
X255270000Y-143290000D02*
X262890000Y-150910000D01*
X129540000Y-159385000D02*
X131445000Y-161290000D01*
X129540000Y-150910000D02*
X129540000Y-159385000D01*
X121920000Y-142240000D02*
X121920000Y-143290000D01*
X121920000Y-143290000D02*
X129540000Y-150910000D01*
X246380000Y-127000000D02*
X252730000Y-120650000D01*
X213360000Y-120650000D02*
X229870000Y-120650000D01*
X119380000Y-120650000D02*
X213360000Y-120650000D01*
X102870000Y-137160000D02*
X119380000Y-120650000D01*
X102870000Y-142240000D02*
X102870000Y-137160000D01*
X236220000Y-137160000D02*
X246380000Y-127000000D01*
X236220000Y-142240000D02*
X236220000Y-137160000D01*
X245745000Y-165735000D02*
X245745000Y-161290000D01*
X236220000Y-175260000D02*
X245745000Y-165735000D01*
X236220000Y-180340000D02*
X236220000Y-175260000D01*
X112395000Y-165735000D02*
X112395000Y-161290000D01*
X102870000Y-175260000D02*
X112395000Y-165735000D01*
X102870000Y-180340000D02*
X102870000Y-175260000D01*
X243840000Y-159385000D02*
X245745000Y-161290000D01*
X243840000Y-150910000D02*
X243840000Y-159385000D01*
X236220000Y-142240000D02*
X236220000Y-143290000D01*
X236220000Y-143290000D02*
X243840000Y-150910000D01*
X110490000Y-159385000D02*
X112395000Y-161290000D01*
X110490000Y-150910000D02*
X110490000Y-159385000D01*
X102870000Y-142240000D02*
X102870000Y-143290000D01*
X102870000Y-143290000D02*
X110490000Y-150910000D01*
X234950000Y-119380000D02*
X237490000Y-119380000D01*
X227330000Y-127000000D02*
X234950000Y-119380000D01*
X101600000Y-119380000D02*
X214630000Y-119380000D01*
X83820000Y-137160000D02*
X101600000Y-119380000D01*
X83820000Y-142240000D02*
X83820000Y-137160000D01*
X214630000Y-119380000D02*
X234950000Y-119380000D01*
X217170000Y-137160000D02*
X227330000Y-127000000D01*
X217170000Y-142240000D02*
X217170000Y-137160000D01*
X226695000Y-165735000D02*
X226695000Y-161290000D01*
X217170000Y-175260000D02*
X226695000Y-165735000D01*
X217170000Y-180340000D02*
X217170000Y-175260000D01*
X83820000Y-175260000D02*
X93345000Y-165735000D01*
X93345000Y-165735000D02*
X93345000Y-161290000D01*
X83820000Y-180340000D02*
X83820000Y-175260000D01*
X224790000Y-159385000D02*
X226695000Y-161290000D01*
X224790000Y-150910000D02*
X224790000Y-159385000D01*
X217170000Y-142240000D02*
X217170000Y-143290000D01*
X217170000Y-143290000D02*
X224790000Y-150910000D01*
X91440000Y-159385000D02*
X93345000Y-161290000D01*
X91440000Y-150910000D02*
X91440000Y-159385000D01*
X83820000Y-142240000D02*
X83820000Y-143290000D01*
X83820000Y-143290000D02*
X91440000Y-150910000D01*
X153670000Y-111760000D02*
X156210000Y-111760000D01*
X156210000Y-111760000D02*
X328930000Y-111760000D01*
X153670000Y-114300000D02*
X156210000Y-111760000D01*
X328930000Y-111760000D02*
X330200000Y-113030000D01*
X99060000Y-116840000D02*
X80010000Y-116840000D01*
X80010000Y-116840000D02*
X77470000Y-114300000D01*
X118110000Y-116840000D02*
X99060000Y-116840000D01*
X99060000Y-116840000D02*
X96520000Y-114300000D01*
X118110000Y-116840000D02*
X115570000Y-114300000D01*
X132080000Y-116840000D02*
X118110000Y-116840000D01*
X134620000Y-114300000D02*
X132080000Y-116840000D01*
X137160000Y-111760000D02*
X134620000Y-114300000D01*
X153670000Y-111760000D02*
X137160000Y-111760000D01*
X334010000Y-116840000D02*
X330200000Y-113030000D01*
X321310000Y-106680000D02*
X326390000Y-101600000D01*
X308450000Y-106680000D02*
X321310000Y-106680000D01*
X304720000Y-102950000D02*
X308450000Y-106680000D01*
X133350000Y-102950000D02*
X304720000Y-102950000D01*
X132120000Y-104180000D02*
X133350000Y-102950000D01*
X132120000Y-114300000D02*
X132120000Y-104180000D01*
X317500000Y-105410000D02*
X321310000Y-101600000D01*
X309720000Y-105410000D02*
X317500000Y-105410000D01*
X305990000Y-101680000D02*
X309720000Y-105410000D01*
X115570000Y-101680000D02*
X305990000Y-101680000D01*
X113070000Y-104180000D02*
X115570000Y-101680000D01*
X113070000Y-114300000D02*
X113070000Y-104180000D01*
X313690000Y-104140000D02*
X316230000Y-101600000D01*
X310990000Y-104140000D02*
X313690000Y-104140000D01*
X307260000Y-100410000D02*
X310990000Y-104140000D01*
X96520000Y-100410000D02*
X307260000Y-100410000D01*
X94020000Y-102910000D02*
X96520000Y-100410000D01*
X94020000Y-114300000D02*
X94020000Y-102910000D01*
X74970000Y-114300000D02*
X74970000Y-102830000D01*
X74970000Y-102830000D02*
X78740000Y-99060000D01*
X78740000Y-99060000D02*
X311150000Y-99060000D01*
X311150000Y-99060000D02*
X313690000Y-101600000D01*
X154940000Y-116840000D02*
X307340000Y-116840000D01*
X309880000Y-114300000D02*
X307340000Y-116840000D01*
X328930000Y-114300000D02*
X309880000Y-114300000D01*
X151130000Y-115570000D02*
X151170000Y-115530000D01*
X151170000Y-115530000D02*
X151170000Y-114300000D01*
X152400000Y-116840000D02*
X151130000Y-115570000D01*
X154940000Y-116840000D02*
X152400000Y-116840000D01*
X331470000Y-116840000D02*
X328930000Y-114300000D01*
M02*
