G04 #@! TF.GenerationSoftware,KiCad,Pcbnew,5.0.0-rc1-44a33f2~62~ubuntu16.04.1*
G04 #@! TF.CreationDate,2018-03-08T22:41:24+01:00*
G04 #@! TF.ProjectId,midi314,6D6964693331342E6B696361645F7063,rev?*
G04 #@! TF.SameCoordinates,Original*
G04 #@! TF.FileFunction,Soldermask,Bot*
G04 #@! TF.FilePolarity,Negative*
%FSLAX46Y46*%
G04 Gerber Fmt 4.6, Leading zero omitted, Abs format (unit mm)*
G04 Created by KiCad (PCBNEW 5.0.0-rc1-44a33f2~62~ubuntu16.04.1) date Thu Mar  8 22:41:24 2018*
%MOMM*%
%LPD*%
G01*
G04 APERTURE LIST*
%ADD10C,2.200000*%
%ADD11C,4.400000*%
%ADD12C,2.100000*%
%ADD13C,2.600000*%
%ADD14O,2.000000X2.000000*%
%ADD15R,2.000000X2.000000*%
G04 APERTURE END LIST*
D10*
X91520000Y-114300000D03*
X94020000Y-114300000D03*
X96520000Y-114300000D03*
D11*
X89620000Y-107300000D03*
X98420000Y-107300000D03*
X117470000Y-107300000D03*
X108670000Y-107300000D03*
D10*
X115570000Y-114300000D03*
X113070000Y-114300000D03*
X110570000Y-114300000D03*
X129620000Y-114300000D03*
X132120000Y-114300000D03*
X134620000Y-114300000D03*
D11*
X127720000Y-107300000D03*
X136520000Y-107300000D03*
X155570000Y-107300000D03*
X146770000Y-107300000D03*
D10*
X153670000Y-114300000D03*
X151170000Y-114300000D03*
X148670000Y-114300000D03*
X72470000Y-114300000D03*
X74970000Y-114300000D03*
X77470000Y-114300000D03*
D11*
X70570000Y-107300000D03*
X79370000Y-107300000D03*
D12*
X232410000Y-137160000D03*
X222250000Y-137160000D03*
D11*
X227330000Y-137160000D03*
D13*
X223520000Y-134620000D03*
X229870000Y-132080000D03*
D14*
X341630000Y-116840000D03*
X313690000Y-101600000D03*
X339090000Y-116840000D03*
X316230000Y-101600000D03*
X336550000Y-116840000D03*
X318770000Y-101600000D03*
X334010000Y-116840000D03*
X321310000Y-101600000D03*
X331470000Y-116840000D03*
X323850000Y-101600000D03*
X328930000Y-116840000D03*
X326390000Y-101600000D03*
X326390000Y-116840000D03*
X328930000Y-101600000D03*
X323850000Y-116840000D03*
X331470000Y-101600000D03*
X321310000Y-116840000D03*
X334010000Y-101600000D03*
X318770000Y-116840000D03*
X336550000Y-101600000D03*
X316230000Y-116840000D03*
X339090000Y-101600000D03*
X313690000Y-116840000D03*
D15*
X341630000Y-101600000D03*
D12*
X327660000Y-137160000D03*
X317500000Y-137160000D03*
D11*
X322580000Y-137160000D03*
D13*
X318770000Y-134620000D03*
X325120000Y-132080000D03*
D12*
X80010000Y-137160000D03*
X69850000Y-137160000D03*
D11*
X74930000Y-137160000D03*
D13*
X71120000Y-134620000D03*
X77470000Y-132080000D03*
D12*
X99060000Y-137160000D03*
X88900000Y-137160000D03*
D11*
X93980000Y-137160000D03*
D13*
X90170000Y-134620000D03*
X96520000Y-132080000D03*
D12*
X118110000Y-137160000D03*
X107950000Y-137160000D03*
D11*
X113030000Y-137160000D03*
D13*
X109220000Y-134620000D03*
X115570000Y-132080000D03*
D12*
X137160000Y-137160000D03*
X127000000Y-137160000D03*
D11*
X132080000Y-137160000D03*
D13*
X128270000Y-134620000D03*
X134620000Y-132080000D03*
D12*
X156210000Y-137160000D03*
X146050000Y-137160000D03*
D11*
X151130000Y-137160000D03*
D13*
X147320000Y-134620000D03*
X153670000Y-132080000D03*
D12*
X175260000Y-137160000D03*
X165100000Y-137160000D03*
D11*
X170180000Y-137160000D03*
D13*
X166370000Y-134620000D03*
X172720000Y-132080000D03*
D12*
X194310000Y-137160000D03*
X184150000Y-137160000D03*
D11*
X189230000Y-137160000D03*
D13*
X185420000Y-134620000D03*
X191770000Y-132080000D03*
D12*
X89535000Y-156210000D03*
X79375000Y-156210000D03*
D11*
X84455000Y-156210000D03*
D13*
X80645000Y-153670000D03*
X86995000Y-151130000D03*
D12*
X108585000Y-156210000D03*
X98425000Y-156210000D03*
D11*
X103505000Y-156210000D03*
D13*
X99695000Y-153670000D03*
X106045000Y-151130000D03*
D12*
X127635000Y-156210000D03*
X117475000Y-156210000D03*
D11*
X122555000Y-156210000D03*
D13*
X118745000Y-153670000D03*
X125095000Y-151130000D03*
D12*
X146685000Y-156210000D03*
X136525000Y-156210000D03*
D11*
X141605000Y-156210000D03*
D13*
X137795000Y-153670000D03*
X144145000Y-151130000D03*
D12*
X165735000Y-156210000D03*
X155575000Y-156210000D03*
D11*
X160655000Y-156210000D03*
D13*
X156845000Y-153670000D03*
X163195000Y-151130000D03*
D12*
X184785000Y-156210000D03*
X174625000Y-156210000D03*
D11*
X179705000Y-156210000D03*
D13*
X175895000Y-153670000D03*
X182245000Y-151130000D03*
D12*
X203835000Y-156210000D03*
X193675000Y-156210000D03*
D11*
X198755000Y-156210000D03*
D13*
X194945000Y-153670000D03*
X201295000Y-151130000D03*
D14*
X83820000Y-132080000D03*
D15*
X83820000Y-142240000D03*
D14*
X102870000Y-132080000D03*
D15*
X102870000Y-142240000D03*
D14*
X121920000Y-132080000D03*
D15*
X121920000Y-142240000D03*
D14*
X140970000Y-132080000D03*
D15*
X140970000Y-142240000D03*
D14*
X160020000Y-132080000D03*
D15*
X160020000Y-142240000D03*
D14*
X179070000Y-132080000D03*
D15*
X179070000Y-142240000D03*
D14*
X198120000Y-132080000D03*
D15*
X198120000Y-142240000D03*
D14*
X93345000Y-151130000D03*
D15*
X93345000Y-161290000D03*
D14*
X112395000Y-151130000D03*
D15*
X112395000Y-161290000D03*
D14*
X131445000Y-151130000D03*
D15*
X131445000Y-161290000D03*
D14*
X150495000Y-151130000D03*
D15*
X150495000Y-161290000D03*
D14*
X169545000Y-151130000D03*
D15*
X169545000Y-161290000D03*
D14*
X188595000Y-151130000D03*
D15*
X188595000Y-161290000D03*
D14*
X207645000Y-151130000D03*
D15*
X207645000Y-161290000D03*
D14*
X83820000Y-170180000D03*
D15*
X83820000Y-180340000D03*
D14*
X102870000Y-170180000D03*
D15*
X102870000Y-180340000D03*
D14*
X121920000Y-170180000D03*
D15*
X121920000Y-180340000D03*
D14*
X140970000Y-170180000D03*
D15*
X140970000Y-180340000D03*
D14*
X160020000Y-170180000D03*
D15*
X160020000Y-180340000D03*
D14*
X179070000Y-170180000D03*
D15*
X179070000Y-180340000D03*
D14*
X198120000Y-170180000D03*
D15*
X198120000Y-180340000D03*
D14*
X217170000Y-132080000D03*
D15*
X217170000Y-142240000D03*
D14*
X236220000Y-132080000D03*
D15*
X236220000Y-142240000D03*
D14*
X255270000Y-132080000D03*
D15*
X255270000Y-142240000D03*
D14*
X274320000Y-132080000D03*
D15*
X274320000Y-142240000D03*
D14*
X293370000Y-132080000D03*
D15*
X293370000Y-142240000D03*
D14*
X312420000Y-132080000D03*
D15*
X312420000Y-142240000D03*
D14*
X331470000Y-132080000D03*
D15*
X331470000Y-142240000D03*
D14*
X226695000Y-151130000D03*
D15*
X226695000Y-161290000D03*
D14*
X245745000Y-151130000D03*
D15*
X245745000Y-161290000D03*
D14*
X264795000Y-151130000D03*
D15*
X264795000Y-161290000D03*
D14*
X283845000Y-151130000D03*
D15*
X283845000Y-161290000D03*
D14*
X302895000Y-151130000D03*
D15*
X302895000Y-161290000D03*
D14*
X321945000Y-151130000D03*
D15*
X321945000Y-161290000D03*
D14*
X340995000Y-151130000D03*
D15*
X340995000Y-161290000D03*
D14*
X217170000Y-170180000D03*
D15*
X217170000Y-180340000D03*
D14*
X236220000Y-170180000D03*
D15*
X236220000Y-180340000D03*
D14*
X255270000Y-170180000D03*
D15*
X255270000Y-180340000D03*
D14*
X274320000Y-170180000D03*
D15*
X274320000Y-180340000D03*
D14*
X293370000Y-170180000D03*
D15*
X293370000Y-180340000D03*
D14*
X312420000Y-170180000D03*
D15*
X312420000Y-180340000D03*
D14*
X331470000Y-170180000D03*
D15*
X331470000Y-180340000D03*
D12*
X80010000Y-175260000D03*
X69850000Y-175260000D03*
D11*
X74930000Y-175260000D03*
D13*
X71120000Y-172720000D03*
X77470000Y-170180000D03*
D12*
X99060000Y-175260000D03*
X88900000Y-175260000D03*
D11*
X93980000Y-175260000D03*
D13*
X90170000Y-172720000D03*
X96520000Y-170180000D03*
D12*
X118110000Y-175260000D03*
X107950000Y-175260000D03*
D11*
X113030000Y-175260000D03*
D13*
X109220000Y-172720000D03*
X115570000Y-170180000D03*
D12*
X137160000Y-175260000D03*
X127000000Y-175260000D03*
D11*
X132080000Y-175260000D03*
D13*
X128270000Y-172720000D03*
X134620000Y-170180000D03*
D12*
X156210000Y-175260000D03*
X146050000Y-175260000D03*
D11*
X151130000Y-175260000D03*
D13*
X147320000Y-172720000D03*
X153670000Y-170180000D03*
D12*
X175260000Y-175260000D03*
X165100000Y-175260000D03*
D11*
X170180000Y-175260000D03*
D13*
X166370000Y-172720000D03*
X172720000Y-170180000D03*
D12*
X194310000Y-175260000D03*
X184150000Y-175260000D03*
D11*
X189230000Y-175260000D03*
D13*
X185420000Y-172720000D03*
X191770000Y-170180000D03*
D12*
X213360000Y-137160000D03*
X203200000Y-137160000D03*
D11*
X208280000Y-137160000D03*
D13*
X204470000Y-134620000D03*
X210820000Y-132080000D03*
D12*
X251460000Y-137160000D03*
X241300000Y-137160000D03*
D11*
X246380000Y-137160000D03*
D13*
X242570000Y-134620000D03*
X248920000Y-132080000D03*
D12*
X270510000Y-137160000D03*
X260350000Y-137160000D03*
D11*
X265430000Y-137160000D03*
D13*
X261620000Y-134620000D03*
X267970000Y-132080000D03*
D12*
X289560000Y-137160000D03*
X279400000Y-137160000D03*
D11*
X284480000Y-137160000D03*
D13*
X280670000Y-134620000D03*
X287020000Y-132080000D03*
D12*
X308610000Y-137160000D03*
X298450000Y-137160000D03*
D11*
X303530000Y-137160000D03*
D13*
X299720000Y-134620000D03*
X306070000Y-132080000D03*
D12*
X222885000Y-156210000D03*
X212725000Y-156210000D03*
D11*
X217805000Y-156210000D03*
D13*
X213995000Y-153670000D03*
X220345000Y-151130000D03*
D12*
X241935000Y-156210000D03*
X231775000Y-156210000D03*
D11*
X236855000Y-156210000D03*
D13*
X233045000Y-153670000D03*
X239395000Y-151130000D03*
D12*
X260985000Y-156210000D03*
X250825000Y-156210000D03*
D11*
X255905000Y-156210000D03*
D13*
X252095000Y-153670000D03*
X258445000Y-151130000D03*
D12*
X280035000Y-156210000D03*
X269875000Y-156210000D03*
D11*
X274955000Y-156210000D03*
D13*
X271145000Y-153670000D03*
X277495000Y-151130000D03*
D12*
X299085000Y-156210000D03*
X288925000Y-156210000D03*
D11*
X294005000Y-156210000D03*
D13*
X290195000Y-153670000D03*
X296545000Y-151130000D03*
D12*
X318135000Y-156210000D03*
X307975000Y-156210000D03*
D11*
X313055000Y-156210000D03*
D13*
X309245000Y-153670000D03*
X315595000Y-151130000D03*
D12*
X337185000Y-156210000D03*
X327025000Y-156210000D03*
D11*
X332105000Y-156210000D03*
D13*
X328295000Y-153670000D03*
X334645000Y-151130000D03*
D12*
X213360000Y-175260000D03*
X203200000Y-175260000D03*
D11*
X208280000Y-175260000D03*
D13*
X204470000Y-172720000D03*
X210820000Y-170180000D03*
D12*
X232410000Y-175260000D03*
X222250000Y-175260000D03*
D11*
X227330000Y-175260000D03*
D13*
X223520000Y-172720000D03*
X229870000Y-170180000D03*
D12*
X251460000Y-175260000D03*
X241300000Y-175260000D03*
D11*
X246380000Y-175260000D03*
D13*
X242570000Y-172720000D03*
X248920000Y-170180000D03*
D12*
X270510000Y-175260000D03*
X260350000Y-175260000D03*
D11*
X265430000Y-175260000D03*
D13*
X261620000Y-172720000D03*
X267970000Y-170180000D03*
D12*
X289560000Y-175260000D03*
X279400000Y-175260000D03*
D11*
X284480000Y-175260000D03*
D13*
X280670000Y-172720000D03*
X287020000Y-170180000D03*
D12*
X308610000Y-175260000D03*
X298450000Y-175260000D03*
D11*
X303530000Y-175260000D03*
D13*
X299720000Y-172720000D03*
X306070000Y-170180000D03*
D12*
X327660000Y-175260000D03*
X317500000Y-175260000D03*
D11*
X322580000Y-175260000D03*
D13*
X318770000Y-172720000D03*
X325120000Y-170180000D03*
M02*
