M48
INCH,TZ
T1C0.0157
T2C0.0315
T3C0.0394
T4C0.0591
T5C0.0669
T6C0.0787
T7C0.1575
%
G90
G05
T1
X8.8Y-5.
X8.85Y-4.95
X8.9Y-4.9
X8.95Y-4.85
X9.Y-4.8
X9.05Y-4.75
X9.35Y-4.7
X9.95Y-4.75
X10.65Y-4.8
X11.35Y-4.85
X12.05Y-4.9
X12.75Y-4.95
X12.95Y-5.
T2
X9.675Y-5.95
X9.675Y-6.35
X12.35Y-4.
X12.35Y-4.6
X12.45Y-4.
X12.45Y-4.6
X12.55Y-4.
X12.55Y-4.6
X12.65Y-4.
X12.65Y-4.6
X12.75Y-4.
X12.75Y-4.6
X12.85Y-4.
X12.85Y-4.6
X12.95Y-4.
X12.95Y-4.6
X13.05Y-4.
X13.05Y-4.6
X13.15Y-4.
X13.15Y-4.6
X13.25Y-4.
X13.25Y-4.6
X13.35Y-4.
X13.35Y-4.6
X13.45Y-4.
X13.45Y-4.6
X5.55Y-6.7
X5.55Y-7.1
X4.05Y-5.2
X4.05Y-5.6
X11.175Y-5.95
X11.175Y-6.35
X12.675Y-5.95
X12.675Y-6.35
X13.425Y-5.95
X13.425Y-6.35
X5.925Y-5.95
X5.925Y-6.35
X4.8Y-6.7
X4.8Y-7.1
X8.55Y-6.7
X8.55Y-7.1
X5.55Y-5.2
X5.55Y-5.6
X11.55Y-6.7
X11.55Y-7.1
X5.175Y-5.95
X5.175Y-6.35
X8.925Y-5.95
X8.925Y-6.35
X12.3Y-5.2
X12.3Y-5.6
X10.8Y-6.7
X10.8Y-7.1
X3.675Y-5.95
X3.675Y-6.35
X10.05Y-6.7
X10.05Y-7.1
X9.3Y-5.2
X9.3Y-5.6
X13.05Y-5.2
X13.05Y-5.6
X4.05Y-6.7
X4.05Y-7.1
X6.3Y-6.7
X6.3Y-7.1
X3.3Y-6.7
X3.3Y-7.1
X9.3Y-6.7
X9.3Y-7.1
X8.55Y-5.2
X8.55Y-5.6
X3.3Y-5.2
X3.3Y-5.6
X6.675Y-5.95
X6.675Y-6.35
X11.925Y-5.95
X11.925Y-6.35
X11.55Y-5.2
X11.55Y-5.6
X7.8Y-6.7
X7.8Y-7.1
X7.8Y-5.2
X7.8Y-5.6
X6.3Y-5.2
X6.3Y-5.6
X7.05Y-5.2
X7.05Y-5.6
X4.8Y-5.2
X4.8Y-5.6
X10.05Y-5.2
X10.05Y-5.6
X12.3Y-6.7
X12.3Y-7.1
X13.05Y-6.7
X13.05Y-7.1
X8.175Y-5.95
X8.175Y-6.35
X7.05Y-6.7
X7.05Y-7.1
X10.8Y-5.2
X10.8Y-5.6
X10.425Y-5.95
X10.425Y-6.35
X7.425Y-5.95
X7.425Y-6.35
X4.425Y-5.95
X4.425Y-6.35
T3
X3.6031Y-4.5
X3.7016Y-4.5
X3.8Y-4.5
X5.1031Y-4.5
X5.2016Y-4.5
X5.3Y-4.5
X2.8531Y-4.5
X2.9516Y-4.5
X3.05Y-4.5
X5.8531Y-4.5
X5.9516Y-4.5
X6.05Y-4.5
X4.3531Y-4.5
X4.4516Y-4.5
X4.55Y-4.5
T4
X7.3Y-6.8
X7.55Y-6.7
X12.55Y-5.3
X12.8Y-5.2
X3.55Y-6.8
X3.8Y-6.7
X6.925Y-6.05
X7.175Y-5.95
X4.3Y-5.3
X4.55Y-5.2
X2.8Y-6.8
X3.05Y-6.7
X6.55Y-5.3
X6.8Y-5.2
X12.175Y-6.05
X12.425Y-5.95
X6.55Y-6.8
X6.8Y-6.7
X7.675Y-6.05
X7.925Y-5.95
X5.05Y-6.8
X5.3Y-6.7
X3.925Y-6.05
X4.175Y-5.95
X9.175Y-6.05
X9.425Y-5.95
X3.55Y-5.3
X3.8Y-5.2
X9.925Y-6.05
X10.175Y-5.95
X12.55Y-6.8
X12.8Y-6.7
X7.3Y-5.3
X7.55Y-5.2
X11.425Y-6.05
X11.675Y-5.95
X3.175Y-6.05
X3.425Y-5.95
X11.05Y-5.3
X11.3Y-5.2
X11.8Y-5.3
X12.05Y-5.2
X10.3Y-6.8
X10.55Y-6.7
X5.425Y-6.05
X5.675Y-5.95
X8.425Y-6.05
X8.675Y-5.95
X11.05Y-6.8
X11.3Y-6.7
X6.175Y-6.05
X6.425Y-5.95
X8.8Y-5.3
X9.05Y-5.2
X5.05Y-5.3
X5.3Y-5.2
X5.8Y-6.8
X6.05Y-6.7
X4.675Y-6.05
X4.925Y-5.95
X11.8Y-6.8
X12.05Y-6.7
X8.8Y-6.8
X9.05Y-6.7
X5.8Y-5.3
X6.05Y-5.2
X9.55Y-6.8
X9.8Y-6.7
X12.925Y-6.05
X13.175Y-5.95
X10.3Y-5.3
X10.55Y-5.2
X4.3Y-6.8
X4.55Y-6.7
X10.675Y-6.05
X10.925Y-5.95
X8.05Y-6.8
X8.3Y-6.7
X8.05Y-5.3
X8.3Y-5.2
X2.8Y-5.3
X3.05Y-5.2
X9.55Y-5.3
X9.8Y-5.2
T5
X4.25Y-5.4
X4.65Y-5.4
X2.75Y-6.9
X3.15Y-6.9
X6.5Y-5.4
X6.9Y-5.4
X12.125Y-6.15
X12.525Y-6.15
X6.5Y-6.9
X6.9Y-6.9
X7.625Y-6.15
X8.025Y-6.15
X5.Y-6.9
X5.4Y-6.9
X3.875Y-6.15
X4.275Y-6.15
X9.125Y-6.15
X9.525Y-6.15
X3.5Y-5.4
X3.9Y-5.4
X9.875Y-6.15
X10.275Y-6.15
X12.5Y-6.9
X12.9Y-6.9
X7.25Y-5.4
X7.65Y-5.4
X11.375Y-6.15
X11.775Y-6.15
X3.125Y-6.15
X3.525Y-6.15
X11.Y-5.4
X11.4Y-5.4
X11.75Y-5.4
X12.15Y-5.4
X10.25Y-6.9
X10.65Y-6.9
X5.375Y-6.15
X5.775Y-6.15
X8.375Y-6.15
X8.775Y-6.15
X11.Y-6.9
X11.4Y-6.9
X6.125Y-6.15
X6.525Y-6.15
X8.75Y-5.4
X9.15Y-5.4
X5.Y-5.4
X5.4Y-5.4
X5.75Y-6.9
X6.15Y-6.9
X4.625Y-6.15
X5.025Y-6.15
X11.75Y-6.9
X12.15Y-6.9
X8.75Y-6.9
X9.15Y-6.9
X5.75Y-5.4
X6.15Y-5.4
X9.5Y-6.9
X9.9Y-6.9
X12.875Y-6.15
X13.275Y-6.15
X10.25Y-5.4
X10.65Y-5.4
X4.25Y-6.9
X4.65Y-6.9
X10.625Y-6.15
X11.025Y-6.15
X8.Y-6.9
X8.4Y-6.9
X8.Y-5.4
X8.4Y-5.4
X2.75Y-5.4
X3.15Y-5.4
X9.5Y-5.4
X9.9Y-5.4
X7.25Y-6.9
X7.65Y-6.9
X12.5Y-5.4
X12.9Y-5.4
X3.5Y-6.9
X3.9Y-6.9
X6.875Y-6.15
X7.275Y-6.15
T6
X4.2783Y-4.2244
X4.6248Y-4.2244
X3.5283Y-4.2244
X3.8748Y-4.2244
X5.0283Y-4.2244
X5.3748Y-4.2244
X2.7783Y-4.2244
X3.1248Y-4.2244
X5.7783Y-4.2244
X6.1248Y-4.2244
T7
X7.45Y-6.9
X12.7Y-5.4
X3.7Y-6.9
X7.075Y-6.15
X4.45Y-5.4
X2.95Y-6.9
X6.7Y-5.4
X12.325Y-6.15
X6.7Y-6.9
X7.825Y-6.15
X5.2Y-6.9
X4.075Y-6.15
X9.325Y-6.15
X3.7Y-5.4
X10.075Y-6.15
X12.7Y-6.9
X7.45Y-5.4
X11.575Y-6.15
X3.325Y-6.15
X11.2Y-5.4
X11.95Y-5.4
X10.45Y-6.9
X5.575Y-6.15
X8.575Y-6.15
X11.2Y-6.9
X6.325Y-6.15
X8.95Y-5.4
X5.2Y-5.4
X5.95Y-6.9
X4.825Y-6.15
X11.95Y-6.9
X8.95Y-6.9
X5.95Y-5.4
X9.7Y-6.9
X13.075Y-6.15
X10.45Y-5.4
X4.45Y-6.9
X10.825Y-6.15
X8.2Y-6.9
X8.2Y-5.4
X2.95Y-5.4
X9.7Y-5.4
T0
M30
