G04 #@! TF.GenerationSoftware,KiCad,Pcbnew,5.0.0-rc1-44a33f2~62~ubuntu16.04.1*
G04 #@! TF.CreationDate,2018-03-08T22:41:24+01:00*
G04 #@! TF.ProjectId,midi314,6D6964693331342E6B696361645F7063,rev?*
G04 #@! TF.SameCoordinates,Original*
G04 #@! TF.FileFunction,Legend,Top*
G04 #@! TF.FilePolarity,Positive*
%FSLAX46Y46*%
G04 Gerber Fmt 4.6, Leading zero omitted, Abs format (unit mm)*
G04 Created by KiCad (PCBNEW 5.0.0-rc1-44a33f2~62~ubuntu16.04.1) date Thu Mar  8 22:41:24 2018*
%MOMM*%
%LPD*%
G01*
G04 APERTURE LIST*
%ADD10C,0.300000*%
%ADD11C,0.120000*%
%ADD12C,0.150000*%
G04 APERTURE END LIST*
D10*
X68147142Y-122598571D02*
X68147142Y-121598571D01*
X68147142Y-121741428D02*
X68218571Y-121670000D01*
X68361428Y-121598571D01*
X68575714Y-121598571D01*
X68718571Y-121670000D01*
X68790000Y-121812857D01*
X68790000Y-122598571D01*
X68790000Y-121812857D02*
X68861428Y-121670000D01*
X69004285Y-121598571D01*
X69218571Y-121598571D01*
X69361428Y-121670000D01*
X69432857Y-121812857D01*
X69432857Y-122598571D01*
X70147142Y-122598571D02*
X70147142Y-121598571D01*
X70147142Y-121098571D02*
X70075714Y-121170000D01*
X70147142Y-121241428D01*
X70218571Y-121170000D01*
X70147142Y-121098571D01*
X70147142Y-121241428D01*
X71504285Y-122598571D02*
X71504285Y-121098571D01*
X71504285Y-122527142D02*
X71361428Y-122598571D01*
X71075714Y-122598571D01*
X70932857Y-122527142D01*
X70861428Y-122455714D01*
X70790000Y-122312857D01*
X70790000Y-121884285D01*
X70861428Y-121741428D01*
X70932857Y-121670000D01*
X71075714Y-121598571D01*
X71361428Y-121598571D01*
X71504285Y-121670000D01*
X72218571Y-122598571D02*
X72218571Y-121598571D01*
X72218571Y-121098571D02*
X72147142Y-121170000D01*
X72218571Y-121241428D01*
X72290000Y-121170000D01*
X72218571Y-121098571D01*
X72218571Y-121241428D01*
X73861428Y-121884285D02*
X73790000Y-121812857D01*
X73647142Y-121741428D01*
X73504285Y-121741428D01*
X73361428Y-121812857D01*
X73290000Y-121884285D01*
X73218571Y-122027142D01*
X73218571Y-122170000D01*
X73290000Y-122312857D01*
X73361428Y-122384285D01*
X73504285Y-122455714D01*
X73647142Y-122455714D01*
X73790000Y-122384285D01*
X73861428Y-122312857D01*
X73861428Y-121741428D02*
X73861428Y-122312857D01*
X73932857Y-122384285D01*
X74004285Y-122384285D01*
X74147142Y-122312857D01*
X74218571Y-122170000D01*
X74218571Y-121812857D01*
X74075714Y-121598571D01*
X73861428Y-121455714D01*
X73575714Y-121384285D01*
X73290000Y-121455714D01*
X73075714Y-121598571D01*
X72932857Y-121812857D01*
X72861428Y-122098571D01*
X72932857Y-122384285D01*
X73075714Y-122598571D01*
X73290000Y-122741428D01*
X73575714Y-122812857D01*
X73861428Y-122741428D01*
X74075714Y-122598571D01*
X74718571Y-121098571D02*
X75647142Y-121098571D01*
X75147142Y-121670000D01*
X75361428Y-121670000D01*
X75504285Y-121741428D01*
X75575714Y-121812857D01*
X75647142Y-121955714D01*
X75647142Y-122312857D01*
X75575714Y-122455714D01*
X75504285Y-122527142D01*
X75361428Y-122598571D01*
X74932857Y-122598571D01*
X74790000Y-122527142D01*
X74718571Y-122455714D01*
X76290000Y-122455714D02*
X76361428Y-122527142D01*
X76290000Y-122598571D01*
X76218571Y-122527142D01*
X76290000Y-122455714D01*
X76290000Y-122598571D01*
X76290000Y-121670000D02*
X76361428Y-121741428D01*
X76290000Y-121812857D01*
X76218571Y-121741428D01*
X76290000Y-121670000D01*
X76290000Y-121812857D01*
X77790000Y-122598571D02*
X76932857Y-122598571D01*
X77361428Y-122598571D02*
X77361428Y-121098571D01*
X77218571Y-121312857D01*
X77075714Y-121455714D01*
X76932857Y-121527142D01*
X79075714Y-121598571D02*
X79075714Y-122598571D01*
X78718571Y-121027142D02*
X78361428Y-122098571D01*
X79290000Y-122098571D01*
X81004285Y-122027142D02*
X82147142Y-122027142D01*
X82861428Y-122027142D02*
X84004285Y-122027142D01*
X86647142Y-121170000D02*
X86504285Y-121098571D01*
X86290000Y-121098571D01*
X86075714Y-121170000D01*
X85932857Y-121312857D01*
X85861428Y-121455714D01*
X85790000Y-121741428D01*
X85790000Y-121955714D01*
X85861428Y-122241428D01*
X85932857Y-122384285D01*
X86075714Y-122527142D01*
X86290000Y-122598571D01*
X86432857Y-122598571D01*
X86647142Y-122527142D01*
X86718571Y-122455714D01*
X86718571Y-121955714D01*
X86432857Y-121955714D01*
X88004285Y-121598571D02*
X88004285Y-122598571D01*
X87361428Y-121598571D02*
X87361428Y-122384285D01*
X87432857Y-122527142D01*
X87575714Y-122598571D01*
X87790000Y-122598571D01*
X87932857Y-122527142D01*
X88004285Y-122455714D01*
X88718571Y-122598571D02*
X88718571Y-121598571D01*
X88718571Y-121098571D02*
X88647142Y-121170000D01*
X88718571Y-121241428D01*
X88790000Y-121170000D01*
X88718571Y-121098571D01*
X88718571Y-121241428D01*
X89647142Y-122598571D02*
X89504285Y-122527142D01*
X89432857Y-122384285D01*
X89432857Y-121098571D01*
X90432857Y-122598571D02*
X90290000Y-122527142D01*
X90218571Y-122384285D01*
X90218571Y-121098571D01*
X91647142Y-122598571D02*
X91647142Y-121812857D01*
X91575714Y-121670000D01*
X91432857Y-121598571D01*
X91147142Y-121598571D01*
X91004285Y-121670000D01*
X91647142Y-122527142D02*
X91504285Y-122598571D01*
X91147142Y-122598571D01*
X91004285Y-122527142D01*
X90932857Y-122384285D01*
X90932857Y-122241428D01*
X91004285Y-122098571D01*
X91147142Y-122027142D01*
X91504285Y-122027142D01*
X91647142Y-121955714D01*
X93004285Y-121598571D02*
X93004285Y-122598571D01*
X92361428Y-121598571D02*
X92361428Y-122384285D01*
X92432857Y-122527142D01*
X92575714Y-122598571D01*
X92790000Y-122598571D01*
X92932857Y-122527142D01*
X93004285Y-122455714D01*
X93718571Y-122598571D02*
X93718571Y-121598571D01*
X93718571Y-121741428D02*
X93790000Y-121670000D01*
X93932857Y-121598571D01*
X94147142Y-121598571D01*
X94290000Y-121670000D01*
X94361428Y-121812857D01*
X94361428Y-122598571D01*
X94361428Y-121812857D02*
X94432857Y-121670000D01*
X94575714Y-121598571D01*
X94790000Y-121598571D01*
X94932857Y-121670000D01*
X95004285Y-121812857D01*
X95004285Y-122598571D01*
X96290000Y-122527142D02*
X96147142Y-122598571D01*
X95861428Y-122598571D01*
X95718571Y-122527142D01*
X95647142Y-122384285D01*
X95647142Y-121812857D01*
X95718571Y-121670000D01*
X95861428Y-121598571D01*
X96147142Y-121598571D01*
X96290000Y-121670000D01*
X96361428Y-121812857D01*
X96361428Y-121955714D01*
X95647142Y-122098571D01*
X98075714Y-122527142D02*
X98290000Y-122598571D01*
X98647142Y-122598571D01*
X98790000Y-122527142D01*
X98861428Y-122455714D01*
X98932857Y-122312857D01*
X98932857Y-122170000D01*
X98861428Y-122027142D01*
X98790000Y-121955714D01*
X98647142Y-121884285D01*
X98361428Y-121812857D01*
X98218571Y-121741428D01*
X98147142Y-121670000D01*
X98075714Y-121527142D01*
X98075714Y-121384285D01*
X98147142Y-121241428D01*
X98218571Y-121170000D01*
X98361428Y-121098571D01*
X98718571Y-121098571D01*
X98932857Y-121170000D01*
X100218571Y-122598571D02*
X100218571Y-121812857D01*
X100147142Y-121670000D01*
X100004285Y-121598571D01*
X99718571Y-121598571D01*
X99575714Y-121670000D01*
X100218571Y-122527142D02*
X100075714Y-122598571D01*
X99718571Y-122598571D01*
X99575714Y-122527142D01*
X99504285Y-122384285D01*
X99504285Y-122241428D01*
X99575714Y-122098571D01*
X99718571Y-122027142D01*
X100075714Y-122027142D01*
X100218571Y-121955714D01*
X100790000Y-121598571D02*
X101147142Y-122598571D01*
X101504285Y-121598571D01*
X102718571Y-122598571D02*
X102718571Y-121812857D01*
X102647142Y-121670000D01*
X102504285Y-121598571D01*
X102218571Y-121598571D01*
X102075714Y-121670000D01*
X102718571Y-122527142D02*
X102575714Y-122598571D01*
X102218571Y-122598571D01*
X102075714Y-122527142D01*
X102004285Y-122384285D01*
X102004285Y-122241428D01*
X102075714Y-122098571D01*
X102218571Y-122027142D01*
X102575714Y-122027142D01*
X102718571Y-121955714D01*
X103218571Y-121598571D02*
X103790000Y-121598571D01*
X103432857Y-121098571D02*
X103432857Y-122384285D01*
X103504285Y-122527142D01*
X103647142Y-122598571D01*
X103790000Y-122598571D01*
X104504285Y-122598571D02*
X104361428Y-122527142D01*
X104290000Y-122455714D01*
X104218571Y-122312857D01*
X104218571Y-121884285D01*
X104290000Y-121741428D01*
X104361428Y-121670000D01*
X104504285Y-121598571D01*
X104718571Y-121598571D01*
X104861428Y-121670000D01*
X104932857Y-121741428D01*
X105004285Y-121884285D01*
X105004285Y-122312857D01*
X104932857Y-122455714D01*
X104861428Y-122527142D01*
X104718571Y-122598571D01*
X104504285Y-122598571D01*
X105647142Y-121598571D02*
X105647142Y-122598571D01*
X105647142Y-121741428D02*
X105718571Y-121670000D01*
X105861428Y-121598571D01*
X106075714Y-121598571D01*
X106218571Y-121670000D01*
X106290000Y-121812857D01*
X106290000Y-122598571D01*
X108147142Y-122027142D02*
X109290000Y-122027142D01*
X110004285Y-122027142D02*
X111147142Y-122027142D01*
X112932857Y-121241428D02*
X113004285Y-121170000D01*
X113147142Y-121098571D01*
X113504285Y-121098571D01*
X113647142Y-121170000D01*
X113718571Y-121241428D01*
X113790000Y-121384285D01*
X113790000Y-121527142D01*
X113718571Y-121741428D01*
X112861428Y-122598571D01*
X113790000Y-122598571D01*
X114718571Y-121098571D02*
X114861428Y-121098571D01*
X115004285Y-121170000D01*
X115075714Y-121241428D01*
X115147142Y-121384285D01*
X115218571Y-121670000D01*
X115218571Y-122027142D01*
X115147142Y-122312857D01*
X115075714Y-122455714D01*
X115004285Y-122527142D01*
X114861428Y-122598571D01*
X114718571Y-122598571D01*
X114575714Y-122527142D01*
X114504285Y-122455714D01*
X114432857Y-122312857D01*
X114361428Y-122027142D01*
X114361428Y-121670000D01*
X114432857Y-121384285D01*
X114504285Y-121241428D01*
X114575714Y-121170000D01*
X114718571Y-121098571D01*
X116647142Y-122598571D02*
X115790000Y-122598571D01*
X116218571Y-122598571D02*
X116218571Y-121098571D01*
X116075714Y-121312857D01*
X115932857Y-121455714D01*
X115790000Y-121527142D01*
X117504285Y-121741428D02*
X117361428Y-121670000D01*
X117290000Y-121598571D01*
X117218571Y-121455714D01*
X117218571Y-121384285D01*
X117290000Y-121241428D01*
X117361428Y-121170000D01*
X117504285Y-121098571D01*
X117790000Y-121098571D01*
X117932857Y-121170000D01*
X118004285Y-121241428D01*
X118075714Y-121384285D01*
X118075714Y-121455714D01*
X118004285Y-121598571D01*
X117932857Y-121670000D01*
X117790000Y-121741428D01*
X117504285Y-121741428D01*
X117361428Y-121812857D01*
X117290000Y-121884285D01*
X117218571Y-122027142D01*
X117218571Y-122312857D01*
X117290000Y-122455714D01*
X117361428Y-122527142D01*
X117504285Y-122598571D01*
X117790000Y-122598571D01*
X117932857Y-122527142D01*
X118004285Y-122455714D01*
X118075714Y-122312857D01*
X118075714Y-122027142D01*
X118004285Y-121884285D01*
X117932857Y-121812857D01*
X117790000Y-121741428D01*
X118718571Y-122027142D02*
X119861428Y-122027142D01*
X120861428Y-121098571D02*
X121004285Y-121098571D01*
X121147142Y-121170000D01*
X121218571Y-121241428D01*
X121290000Y-121384285D01*
X121361428Y-121670000D01*
X121361428Y-122027142D01*
X121290000Y-122312857D01*
X121218571Y-122455714D01*
X121147142Y-122527142D01*
X121004285Y-122598571D01*
X120861428Y-122598571D01*
X120718571Y-122527142D01*
X120647142Y-122455714D01*
X120575714Y-122312857D01*
X120504285Y-122027142D01*
X120504285Y-121670000D01*
X120575714Y-121384285D01*
X120647142Y-121241428D01*
X120718571Y-121170000D01*
X120861428Y-121098571D01*
X121861428Y-121098571D02*
X122790000Y-121098571D01*
X122290000Y-121670000D01*
X122504285Y-121670000D01*
X122647142Y-121741428D01*
X122718571Y-121812857D01*
X122790000Y-121955714D01*
X122790000Y-122312857D01*
X122718571Y-122455714D01*
X122647142Y-122527142D01*
X122504285Y-122598571D01*
X122075714Y-122598571D01*
X121932857Y-122527142D01*
X121861428Y-122455714D01*
X123432857Y-122027142D02*
X124575714Y-122027142D01*
X125575714Y-121098571D02*
X125718571Y-121098571D01*
X125861428Y-121170000D01*
X125932857Y-121241428D01*
X126004285Y-121384285D01*
X126075714Y-121670000D01*
X126075714Y-122027142D01*
X126004285Y-122312857D01*
X125932857Y-122455714D01*
X125861428Y-122527142D01*
X125718571Y-122598571D01*
X125575714Y-122598571D01*
X125432857Y-122527142D01*
X125361428Y-122455714D01*
X125290000Y-122312857D01*
X125218571Y-122027142D01*
X125218571Y-121670000D01*
X125290000Y-121384285D01*
X125361428Y-121241428D01*
X125432857Y-121170000D01*
X125575714Y-121098571D01*
X126932857Y-121741428D02*
X126790000Y-121670000D01*
X126718571Y-121598571D01*
X126647142Y-121455714D01*
X126647142Y-121384285D01*
X126718571Y-121241428D01*
X126790000Y-121170000D01*
X126932857Y-121098571D01*
X127218571Y-121098571D01*
X127361428Y-121170000D01*
X127432857Y-121241428D01*
X127504285Y-121384285D01*
X127504285Y-121455714D01*
X127432857Y-121598571D01*
X127361428Y-121670000D01*
X127218571Y-121741428D01*
X126932857Y-121741428D01*
X126790000Y-121812857D01*
X126718571Y-121884285D01*
X126647142Y-122027142D01*
X126647142Y-122312857D01*
X126718571Y-122455714D01*
X126790000Y-122527142D01*
X126932857Y-122598571D01*
X127218571Y-122598571D01*
X127361428Y-122527142D01*
X127432857Y-122455714D01*
X127504285Y-122312857D01*
X127504285Y-122027142D01*
X127432857Y-121884285D01*
X127361428Y-121812857D01*
X127218571Y-121741428D01*
D11*
X89050000Y-113420000D02*
X89050000Y-109555000D01*
X89050000Y-105045000D02*
X89050000Y-101180000D01*
X98990000Y-113420000D02*
X98990000Y-109555000D01*
X98990000Y-105045000D02*
X98990000Y-101180000D01*
X89050000Y-113420000D02*
X90649000Y-113420000D01*
X92391000Y-113420000D02*
X93150000Y-113420000D01*
X94891000Y-113420000D02*
X95650000Y-113420000D01*
X97390000Y-113420000D02*
X98990000Y-113420000D01*
X89050000Y-101180000D02*
X98990000Y-101180000D01*
X108100000Y-101180000D02*
X118040000Y-101180000D01*
X116440000Y-113420000D02*
X118040000Y-113420000D01*
X113941000Y-113420000D02*
X114700000Y-113420000D01*
X111441000Y-113420000D02*
X112200000Y-113420000D01*
X108100000Y-113420000D02*
X109699000Y-113420000D01*
X118040000Y-105045000D02*
X118040000Y-101180000D01*
X118040000Y-113420000D02*
X118040000Y-109555000D01*
X108100000Y-105045000D02*
X108100000Y-101180000D01*
X108100000Y-113420000D02*
X108100000Y-109555000D01*
X127150000Y-113420000D02*
X127150000Y-109555000D01*
X127150000Y-105045000D02*
X127150000Y-101180000D01*
X137090000Y-113420000D02*
X137090000Y-109555000D01*
X137090000Y-105045000D02*
X137090000Y-101180000D01*
X127150000Y-113420000D02*
X128749000Y-113420000D01*
X130491000Y-113420000D02*
X131250000Y-113420000D01*
X132991000Y-113420000D02*
X133750000Y-113420000D01*
X135490000Y-113420000D02*
X137090000Y-113420000D01*
X127150000Y-101180000D02*
X137090000Y-101180000D01*
X146200000Y-101180000D02*
X156140000Y-101180000D01*
X154540000Y-113420000D02*
X156140000Y-113420000D01*
X152041000Y-113420000D02*
X152800000Y-113420000D01*
X149541000Y-113420000D02*
X150300000Y-113420000D01*
X146200000Y-113420000D02*
X147799000Y-113420000D01*
X156140000Y-105045000D02*
X156140000Y-101180000D01*
X156140000Y-113420000D02*
X156140000Y-109555000D01*
X146200000Y-105045000D02*
X146200000Y-101180000D01*
X146200000Y-113420000D02*
X146200000Y-109555000D01*
X70000000Y-113420000D02*
X70000000Y-109555000D01*
X70000000Y-105045000D02*
X70000000Y-101180000D01*
X79940000Y-113420000D02*
X79940000Y-109555000D01*
X79940000Y-105045000D02*
X79940000Y-101180000D01*
X70000000Y-113420000D02*
X71599000Y-113420000D01*
X73341000Y-113420000D02*
X74100000Y-113420000D01*
X75841000Y-113420000D02*
X76600000Y-113420000D01*
X78340000Y-113420000D02*
X79940000Y-113420000D01*
X70000000Y-101180000D02*
X79940000Y-101180000D01*
X220345000Y-144145000D02*
X220345000Y-130175000D01*
X234315000Y-144145000D02*
X220345000Y-144145000D01*
X234315000Y-130175000D02*
X234315000Y-144145000D01*
X220345000Y-130175000D02*
X234315000Y-130175000D01*
X342960000Y-115680000D02*
X342960000Y-110220000D01*
X312360000Y-115680000D02*
X342960000Y-115680000D01*
X312360000Y-102760000D02*
X312360000Y-115680000D01*
X342960000Y-102760000D02*
X312360000Y-102760000D01*
X342960000Y-108220000D02*
X342960000Y-102760000D01*
X342960000Y-110220000D02*
G75*
G02X342960000Y-108220000I0J1000000D01*
G01*
X315595000Y-144145000D02*
X315595000Y-130175000D01*
X329565000Y-144145000D02*
X315595000Y-144145000D01*
X329565000Y-130175000D02*
X329565000Y-144145000D01*
X315595000Y-130175000D02*
X329565000Y-130175000D01*
X67945000Y-144145000D02*
X67945000Y-130175000D01*
X81915000Y-144145000D02*
X67945000Y-144145000D01*
X81915000Y-130175000D02*
X81915000Y-144145000D01*
X67945000Y-130175000D02*
X81915000Y-130175000D01*
X86995000Y-144145000D02*
X86995000Y-130175000D01*
X100965000Y-144145000D02*
X86995000Y-144145000D01*
X100965000Y-130175000D02*
X100965000Y-144145000D01*
X86995000Y-130175000D02*
X100965000Y-130175000D01*
X106045000Y-144145000D02*
X106045000Y-130175000D01*
X120015000Y-144145000D02*
X106045000Y-144145000D01*
X120015000Y-130175000D02*
X120015000Y-144145000D01*
X106045000Y-130175000D02*
X120015000Y-130175000D01*
X125095000Y-144145000D02*
X125095000Y-130175000D01*
X139065000Y-144145000D02*
X125095000Y-144145000D01*
X139065000Y-130175000D02*
X139065000Y-144145000D01*
X125095000Y-130175000D02*
X139065000Y-130175000D01*
X144145000Y-144145000D02*
X144145000Y-130175000D01*
X158115000Y-144145000D02*
X144145000Y-144145000D01*
X158115000Y-130175000D02*
X158115000Y-144145000D01*
X144145000Y-130175000D02*
X158115000Y-130175000D01*
X163195000Y-144145000D02*
X163195000Y-130175000D01*
X177165000Y-144145000D02*
X163195000Y-144145000D01*
X177165000Y-130175000D02*
X177165000Y-144145000D01*
X163195000Y-130175000D02*
X177165000Y-130175000D01*
X182245000Y-144145000D02*
X182245000Y-130175000D01*
X196215000Y-144145000D02*
X182245000Y-144145000D01*
X196215000Y-130175000D02*
X196215000Y-144145000D01*
X182245000Y-130175000D02*
X196215000Y-130175000D01*
X77470000Y-163195000D02*
X77470000Y-149225000D01*
X91440000Y-163195000D02*
X77470000Y-163195000D01*
X91440000Y-149225000D02*
X91440000Y-163195000D01*
X77470000Y-149225000D02*
X91440000Y-149225000D01*
X96520000Y-163195000D02*
X96520000Y-149225000D01*
X110490000Y-163195000D02*
X96520000Y-163195000D01*
X110490000Y-149225000D02*
X110490000Y-163195000D01*
X96520000Y-149225000D02*
X110490000Y-149225000D01*
X115570000Y-163195000D02*
X115570000Y-149225000D01*
X129540000Y-163195000D02*
X115570000Y-163195000D01*
X129540000Y-149225000D02*
X129540000Y-163195000D01*
X115570000Y-149225000D02*
X129540000Y-149225000D01*
X134620000Y-163195000D02*
X134620000Y-149225000D01*
X148590000Y-163195000D02*
X134620000Y-163195000D01*
X148590000Y-149225000D02*
X148590000Y-163195000D01*
X134620000Y-149225000D02*
X148590000Y-149225000D01*
X153670000Y-163195000D02*
X153670000Y-149225000D01*
X167640000Y-163195000D02*
X153670000Y-163195000D01*
X167640000Y-149225000D02*
X167640000Y-163195000D01*
X153670000Y-149225000D02*
X167640000Y-149225000D01*
X172720000Y-163195000D02*
X172720000Y-149225000D01*
X186690000Y-163195000D02*
X172720000Y-163195000D01*
X186690000Y-149225000D02*
X186690000Y-163195000D01*
X172720000Y-149225000D02*
X186690000Y-149225000D01*
X191770000Y-163195000D02*
X191770000Y-149225000D01*
X205740000Y-163195000D02*
X191770000Y-163195000D01*
X205740000Y-149225000D02*
X205740000Y-163195000D01*
X191770000Y-149225000D02*
X205740000Y-149225000D01*
X67945000Y-182245000D02*
X67945000Y-168275000D01*
X81915000Y-182245000D02*
X67945000Y-182245000D01*
X81915000Y-168275000D02*
X81915000Y-182245000D01*
X67945000Y-168275000D02*
X81915000Y-168275000D01*
X86995000Y-182245000D02*
X86995000Y-168275000D01*
X100965000Y-182245000D02*
X86995000Y-182245000D01*
X100965000Y-168275000D02*
X100965000Y-182245000D01*
X86995000Y-168275000D02*
X100965000Y-168275000D01*
X106045000Y-182245000D02*
X106045000Y-168275000D01*
X120015000Y-182245000D02*
X106045000Y-182245000D01*
X120015000Y-168275000D02*
X120015000Y-182245000D01*
X106045000Y-168275000D02*
X120015000Y-168275000D01*
X125095000Y-182245000D02*
X125095000Y-168275000D01*
X139065000Y-182245000D02*
X125095000Y-182245000D01*
X139065000Y-168275000D02*
X139065000Y-182245000D01*
X125095000Y-168275000D02*
X139065000Y-168275000D01*
X144145000Y-182245000D02*
X144145000Y-168275000D01*
X158115000Y-182245000D02*
X144145000Y-182245000D01*
X158115000Y-168275000D02*
X158115000Y-182245000D01*
X144145000Y-168275000D02*
X158115000Y-168275000D01*
X163195000Y-182245000D02*
X163195000Y-168275000D01*
X177165000Y-182245000D02*
X163195000Y-182245000D01*
X177165000Y-168275000D02*
X177165000Y-182245000D01*
X163195000Y-168275000D02*
X177165000Y-168275000D01*
X182245000Y-182245000D02*
X182245000Y-168275000D01*
X196215000Y-182245000D02*
X182245000Y-182245000D01*
X196215000Y-168275000D02*
X196215000Y-182245000D01*
X182245000Y-168275000D02*
X196215000Y-168275000D01*
X201295000Y-144145000D02*
X201295000Y-130175000D01*
X215265000Y-144145000D02*
X201295000Y-144145000D01*
X215265000Y-130175000D02*
X215265000Y-144145000D01*
X201295000Y-130175000D02*
X215265000Y-130175000D01*
X239395000Y-144145000D02*
X239395000Y-130175000D01*
X253365000Y-144145000D02*
X239395000Y-144145000D01*
X253365000Y-130175000D02*
X253365000Y-144145000D01*
X239395000Y-130175000D02*
X253365000Y-130175000D01*
X258445000Y-144145000D02*
X258445000Y-130175000D01*
X272415000Y-144145000D02*
X258445000Y-144145000D01*
X272415000Y-130175000D02*
X272415000Y-144145000D01*
X258445000Y-130175000D02*
X272415000Y-130175000D01*
X277495000Y-144145000D02*
X277495000Y-130175000D01*
X291465000Y-144145000D02*
X277495000Y-144145000D01*
X291465000Y-130175000D02*
X291465000Y-144145000D01*
X277495000Y-130175000D02*
X291465000Y-130175000D01*
X296545000Y-144145000D02*
X296545000Y-130175000D01*
X310515000Y-144145000D02*
X296545000Y-144145000D01*
X310515000Y-130175000D02*
X310515000Y-144145000D01*
X296545000Y-130175000D02*
X310515000Y-130175000D01*
X210820000Y-163195000D02*
X210820000Y-149225000D01*
X224790000Y-163195000D02*
X210820000Y-163195000D01*
X224790000Y-149225000D02*
X224790000Y-163195000D01*
X210820000Y-149225000D02*
X224790000Y-149225000D01*
X229870000Y-163195000D02*
X229870000Y-149225000D01*
X243840000Y-163195000D02*
X229870000Y-163195000D01*
X243840000Y-149225000D02*
X243840000Y-163195000D01*
X229870000Y-149225000D02*
X243840000Y-149225000D01*
X248920000Y-163195000D02*
X248920000Y-149225000D01*
X262890000Y-163195000D02*
X248920000Y-163195000D01*
X262890000Y-149225000D02*
X262890000Y-163195000D01*
X248920000Y-149225000D02*
X262890000Y-149225000D01*
X267970000Y-163195000D02*
X267970000Y-149225000D01*
X281940000Y-163195000D02*
X267970000Y-163195000D01*
X281940000Y-149225000D02*
X281940000Y-163195000D01*
X267970000Y-149225000D02*
X281940000Y-149225000D01*
X287020000Y-163195000D02*
X287020000Y-149225000D01*
X300990000Y-163195000D02*
X287020000Y-163195000D01*
X300990000Y-149225000D02*
X300990000Y-163195000D01*
X287020000Y-149225000D02*
X300990000Y-149225000D01*
X306070000Y-163195000D02*
X306070000Y-149225000D01*
X320040000Y-163195000D02*
X306070000Y-163195000D01*
X320040000Y-149225000D02*
X320040000Y-163195000D01*
X306070000Y-149225000D02*
X320040000Y-149225000D01*
X325120000Y-163195000D02*
X325120000Y-149225000D01*
X339090000Y-163195000D02*
X325120000Y-163195000D01*
X339090000Y-149225000D02*
X339090000Y-163195000D01*
X325120000Y-149225000D02*
X339090000Y-149225000D01*
X201295000Y-182245000D02*
X201295000Y-168275000D01*
X215265000Y-182245000D02*
X201295000Y-182245000D01*
X215265000Y-168275000D02*
X215265000Y-182245000D01*
X201295000Y-168275000D02*
X215265000Y-168275000D01*
X220345000Y-182245000D02*
X220345000Y-168275000D01*
X234315000Y-182245000D02*
X220345000Y-182245000D01*
X234315000Y-168275000D02*
X234315000Y-182245000D01*
X220345000Y-168275000D02*
X234315000Y-168275000D01*
X239395000Y-182245000D02*
X239395000Y-168275000D01*
X253365000Y-182245000D02*
X239395000Y-182245000D01*
X253365000Y-168275000D02*
X253365000Y-182245000D01*
X239395000Y-168275000D02*
X253365000Y-168275000D01*
X258445000Y-182245000D02*
X258445000Y-168275000D01*
X272415000Y-182245000D02*
X258445000Y-182245000D01*
X272415000Y-168275000D02*
X272415000Y-182245000D01*
X258445000Y-168275000D02*
X272415000Y-168275000D01*
X277495000Y-182245000D02*
X277495000Y-168275000D01*
X291465000Y-182245000D02*
X277495000Y-182245000D01*
X291465000Y-168275000D02*
X291465000Y-182245000D01*
X277495000Y-168275000D02*
X291465000Y-168275000D01*
X296545000Y-182245000D02*
X296545000Y-168275000D01*
X310515000Y-182245000D02*
X296545000Y-182245000D01*
X310515000Y-168275000D02*
X310515000Y-182245000D01*
X296545000Y-168275000D02*
X310515000Y-168275000D01*
X315595000Y-182245000D02*
X315595000Y-168275000D01*
X329565000Y-182245000D02*
X315595000Y-182245000D01*
X329565000Y-168275000D02*
X329565000Y-182245000D01*
X315595000Y-168275000D02*
X329565000Y-168275000D01*
D12*
X86822380Y-108845238D02*
X86346190Y-109178571D01*
X86822380Y-109416666D02*
X85822380Y-109416666D01*
X85822380Y-109035714D01*
X85870000Y-108940476D01*
X85917619Y-108892857D01*
X86012857Y-108845238D01*
X86155714Y-108845238D01*
X86250952Y-108892857D01*
X86298571Y-108940476D01*
X86346190Y-109035714D01*
X86346190Y-109416666D01*
X85822380Y-108559523D02*
X86822380Y-108226190D01*
X85822380Y-107892857D01*
X85822380Y-107654761D02*
X85822380Y-107035714D01*
X86203333Y-107369047D01*
X86203333Y-107226190D01*
X86250952Y-107130952D01*
X86298571Y-107083333D01*
X86393809Y-107035714D01*
X86631904Y-107035714D01*
X86727142Y-107083333D01*
X86774761Y-107130952D01*
X86822380Y-107226190D01*
X86822380Y-107511904D01*
X86774761Y-107607142D01*
X86727142Y-107654761D01*
X105872380Y-108845238D02*
X105396190Y-109178571D01*
X105872380Y-109416666D02*
X104872380Y-109416666D01*
X104872380Y-109035714D01*
X104920000Y-108940476D01*
X104967619Y-108892857D01*
X105062857Y-108845238D01*
X105205714Y-108845238D01*
X105300952Y-108892857D01*
X105348571Y-108940476D01*
X105396190Y-109035714D01*
X105396190Y-109416666D01*
X104872380Y-108559523D02*
X105872380Y-108226190D01*
X104872380Y-107892857D01*
X104967619Y-107607142D02*
X104920000Y-107559523D01*
X104872380Y-107464285D01*
X104872380Y-107226190D01*
X104920000Y-107130952D01*
X104967619Y-107083333D01*
X105062857Y-107035714D01*
X105158095Y-107035714D01*
X105300952Y-107083333D01*
X105872380Y-107654761D01*
X105872380Y-107035714D01*
X124922380Y-108845238D02*
X124446190Y-109178571D01*
X124922380Y-109416666D02*
X123922380Y-109416666D01*
X123922380Y-109035714D01*
X123970000Y-108940476D01*
X124017619Y-108892857D01*
X124112857Y-108845238D01*
X124255714Y-108845238D01*
X124350952Y-108892857D01*
X124398571Y-108940476D01*
X124446190Y-109035714D01*
X124446190Y-109416666D01*
X123922380Y-108559523D02*
X124922380Y-108226190D01*
X123922380Y-107892857D01*
X124922380Y-107035714D02*
X124922380Y-107607142D01*
X124922380Y-107321428D02*
X123922380Y-107321428D01*
X124065238Y-107416666D01*
X124160476Y-107511904D01*
X124208095Y-107607142D01*
X143972380Y-108845238D02*
X143496190Y-109178571D01*
X143972380Y-109416666D02*
X142972380Y-109416666D01*
X142972380Y-109035714D01*
X143020000Y-108940476D01*
X143067619Y-108892857D01*
X143162857Y-108845238D01*
X143305714Y-108845238D01*
X143400952Y-108892857D01*
X143448571Y-108940476D01*
X143496190Y-109035714D01*
X143496190Y-109416666D01*
X142972380Y-108559523D02*
X143972380Y-108226190D01*
X142972380Y-107892857D01*
X142972380Y-107083333D02*
X142972380Y-107559523D01*
X143448571Y-107607142D01*
X143400952Y-107559523D01*
X143353333Y-107464285D01*
X143353333Y-107226190D01*
X143400952Y-107130952D01*
X143448571Y-107083333D01*
X143543809Y-107035714D01*
X143781904Y-107035714D01*
X143877142Y-107083333D01*
X143924761Y-107130952D01*
X143972380Y-107226190D01*
X143972380Y-107464285D01*
X143924761Y-107559523D01*
X143877142Y-107607142D01*
X67772380Y-108845238D02*
X67296190Y-109178571D01*
X67772380Y-109416666D02*
X66772380Y-109416666D01*
X66772380Y-109035714D01*
X66820000Y-108940476D01*
X66867619Y-108892857D01*
X66962857Y-108845238D01*
X67105714Y-108845238D01*
X67200952Y-108892857D01*
X67248571Y-108940476D01*
X67296190Y-109035714D01*
X67296190Y-109416666D01*
X66772380Y-108559523D02*
X67772380Y-108226190D01*
X66772380Y-107892857D01*
X67105714Y-107130952D02*
X67772380Y-107130952D01*
X66724761Y-107369047D02*
X67439047Y-107607142D01*
X67439047Y-106988095D01*
X225520476Y-129690761D02*
X225663333Y-129738380D01*
X225901428Y-129738380D01*
X225996666Y-129690761D01*
X226044285Y-129643142D01*
X226091904Y-129547904D01*
X226091904Y-129452666D01*
X226044285Y-129357428D01*
X225996666Y-129309809D01*
X225901428Y-129262190D01*
X225710952Y-129214571D01*
X225615714Y-129166952D01*
X225568095Y-129119333D01*
X225520476Y-129024095D01*
X225520476Y-128928857D01*
X225568095Y-128833619D01*
X225615714Y-128786000D01*
X225710952Y-128738380D01*
X225949047Y-128738380D01*
X226091904Y-128786000D01*
X226425238Y-128738380D02*
X226663333Y-129738380D01*
X226853809Y-129024095D01*
X227044285Y-129738380D01*
X227282380Y-128738380D01*
X228091904Y-129071714D02*
X228091904Y-129738380D01*
X227853809Y-128690761D02*
X227615714Y-129405047D01*
X228234761Y-129405047D01*
X228568095Y-128833619D02*
X228615714Y-128786000D01*
X228710952Y-128738380D01*
X228949047Y-128738380D01*
X229044285Y-128786000D01*
X229091904Y-128833619D01*
X229139523Y-128928857D01*
X229139523Y-129024095D01*
X229091904Y-129166952D01*
X228520476Y-129738380D01*
X229139523Y-129738380D01*
X343412380Y-109981904D02*
X344221904Y-109981904D01*
X344317142Y-109934285D01*
X344364761Y-109886666D01*
X344412380Y-109791428D01*
X344412380Y-109600952D01*
X344364761Y-109505714D01*
X344317142Y-109458095D01*
X344221904Y-109410476D01*
X343412380Y-109410476D01*
X344412380Y-108410476D02*
X344412380Y-108981904D01*
X344412380Y-108696190D02*
X343412380Y-108696190D01*
X343555238Y-108791428D01*
X343650476Y-108886666D01*
X343698095Y-108981904D01*
X320770476Y-129690761D02*
X320913333Y-129738380D01*
X321151428Y-129738380D01*
X321246666Y-129690761D01*
X321294285Y-129643142D01*
X321341904Y-129547904D01*
X321341904Y-129452666D01*
X321294285Y-129357428D01*
X321246666Y-129309809D01*
X321151428Y-129262190D01*
X320960952Y-129214571D01*
X320865714Y-129166952D01*
X320818095Y-129119333D01*
X320770476Y-129024095D01*
X320770476Y-128928857D01*
X320818095Y-128833619D01*
X320865714Y-128786000D01*
X320960952Y-128738380D01*
X321199047Y-128738380D01*
X321341904Y-128786000D01*
X321675238Y-128738380D02*
X321913333Y-129738380D01*
X322103809Y-129024095D01*
X322294285Y-129738380D01*
X322532380Y-128738380D01*
X323341904Y-129071714D02*
X323341904Y-129738380D01*
X323103809Y-128690761D02*
X322865714Y-129405047D01*
X323484761Y-129405047D01*
X323770476Y-128738380D02*
X324437142Y-128738380D01*
X324008571Y-129738380D01*
X73120476Y-129690761D02*
X73263333Y-129738380D01*
X73501428Y-129738380D01*
X73596666Y-129690761D01*
X73644285Y-129643142D01*
X73691904Y-129547904D01*
X73691904Y-129452666D01*
X73644285Y-129357428D01*
X73596666Y-129309809D01*
X73501428Y-129262190D01*
X73310952Y-129214571D01*
X73215714Y-129166952D01*
X73168095Y-129119333D01*
X73120476Y-129024095D01*
X73120476Y-128928857D01*
X73168095Y-128833619D01*
X73215714Y-128786000D01*
X73310952Y-128738380D01*
X73549047Y-128738380D01*
X73691904Y-128786000D01*
X74025238Y-128738380D02*
X74263333Y-129738380D01*
X74453809Y-129024095D01*
X74644285Y-129738380D01*
X74882380Y-128738380D01*
X75787142Y-129738380D02*
X75215714Y-129738380D01*
X75501428Y-129738380D02*
X75501428Y-128738380D01*
X75406190Y-128881238D01*
X75310952Y-128976476D01*
X75215714Y-129024095D01*
X76739523Y-129738380D02*
X76168095Y-129738380D01*
X76453809Y-129738380D02*
X76453809Y-128738380D01*
X76358571Y-128881238D01*
X76263333Y-128976476D01*
X76168095Y-129024095D01*
X92170476Y-129690761D02*
X92313333Y-129738380D01*
X92551428Y-129738380D01*
X92646666Y-129690761D01*
X92694285Y-129643142D01*
X92741904Y-129547904D01*
X92741904Y-129452666D01*
X92694285Y-129357428D01*
X92646666Y-129309809D01*
X92551428Y-129262190D01*
X92360952Y-129214571D01*
X92265714Y-129166952D01*
X92218095Y-129119333D01*
X92170476Y-129024095D01*
X92170476Y-128928857D01*
X92218095Y-128833619D01*
X92265714Y-128786000D01*
X92360952Y-128738380D01*
X92599047Y-128738380D01*
X92741904Y-128786000D01*
X93075238Y-128738380D02*
X93313333Y-129738380D01*
X93503809Y-129024095D01*
X93694285Y-129738380D01*
X93932380Y-128738380D01*
X94837142Y-129738380D02*
X94265714Y-129738380D01*
X94551428Y-129738380D02*
X94551428Y-128738380D01*
X94456190Y-128881238D01*
X94360952Y-128976476D01*
X94265714Y-129024095D01*
X95218095Y-128833619D02*
X95265714Y-128786000D01*
X95360952Y-128738380D01*
X95599047Y-128738380D01*
X95694285Y-128786000D01*
X95741904Y-128833619D01*
X95789523Y-128928857D01*
X95789523Y-129024095D01*
X95741904Y-129166952D01*
X95170476Y-129738380D01*
X95789523Y-129738380D01*
X111220476Y-129690761D02*
X111363333Y-129738380D01*
X111601428Y-129738380D01*
X111696666Y-129690761D01*
X111744285Y-129643142D01*
X111791904Y-129547904D01*
X111791904Y-129452666D01*
X111744285Y-129357428D01*
X111696666Y-129309809D01*
X111601428Y-129262190D01*
X111410952Y-129214571D01*
X111315714Y-129166952D01*
X111268095Y-129119333D01*
X111220476Y-129024095D01*
X111220476Y-128928857D01*
X111268095Y-128833619D01*
X111315714Y-128786000D01*
X111410952Y-128738380D01*
X111649047Y-128738380D01*
X111791904Y-128786000D01*
X112125238Y-128738380D02*
X112363333Y-129738380D01*
X112553809Y-129024095D01*
X112744285Y-129738380D01*
X112982380Y-128738380D01*
X113887142Y-129738380D02*
X113315714Y-129738380D01*
X113601428Y-129738380D02*
X113601428Y-128738380D01*
X113506190Y-128881238D01*
X113410952Y-128976476D01*
X113315714Y-129024095D01*
X114220476Y-128738380D02*
X114839523Y-128738380D01*
X114506190Y-129119333D01*
X114649047Y-129119333D01*
X114744285Y-129166952D01*
X114791904Y-129214571D01*
X114839523Y-129309809D01*
X114839523Y-129547904D01*
X114791904Y-129643142D01*
X114744285Y-129690761D01*
X114649047Y-129738380D01*
X114363333Y-129738380D01*
X114268095Y-129690761D01*
X114220476Y-129643142D01*
X130270476Y-129690761D02*
X130413333Y-129738380D01*
X130651428Y-129738380D01*
X130746666Y-129690761D01*
X130794285Y-129643142D01*
X130841904Y-129547904D01*
X130841904Y-129452666D01*
X130794285Y-129357428D01*
X130746666Y-129309809D01*
X130651428Y-129262190D01*
X130460952Y-129214571D01*
X130365714Y-129166952D01*
X130318095Y-129119333D01*
X130270476Y-129024095D01*
X130270476Y-128928857D01*
X130318095Y-128833619D01*
X130365714Y-128786000D01*
X130460952Y-128738380D01*
X130699047Y-128738380D01*
X130841904Y-128786000D01*
X131175238Y-128738380D02*
X131413333Y-129738380D01*
X131603809Y-129024095D01*
X131794285Y-129738380D01*
X132032380Y-128738380D01*
X132937142Y-129738380D02*
X132365714Y-129738380D01*
X132651428Y-129738380D02*
X132651428Y-128738380D01*
X132556190Y-128881238D01*
X132460952Y-128976476D01*
X132365714Y-129024095D01*
X133794285Y-129071714D02*
X133794285Y-129738380D01*
X133556190Y-128690761D02*
X133318095Y-129405047D01*
X133937142Y-129405047D01*
X149320476Y-129690761D02*
X149463333Y-129738380D01*
X149701428Y-129738380D01*
X149796666Y-129690761D01*
X149844285Y-129643142D01*
X149891904Y-129547904D01*
X149891904Y-129452666D01*
X149844285Y-129357428D01*
X149796666Y-129309809D01*
X149701428Y-129262190D01*
X149510952Y-129214571D01*
X149415714Y-129166952D01*
X149368095Y-129119333D01*
X149320476Y-129024095D01*
X149320476Y-128928857D01*
X149368095Y-128833619D01*
X149415714Y-128786000D01*
X149510952Y-128738380D01*
X149749047Y-128738380D01*
X149891904Y-128786000D01*
X150225238Y-128738380D02*
X150463333Y-129738380D01*
X150653809Y-129024095D01*
X150844285Y-129738380D01*
X151082380Y-128738380D01*
X151987142Y-129738380D02*
X151415714Y-129738380D01*
X151701428Y-129738380D02*
X151701428Y-128738380D01*
X151606190Y-128881238D01*
X151510952Y-128976476D01*
X151415714Y-129024095D01*
X152891904Y-128738380D02*
X152415714Y-128738380D01*
X152368095Y-129214571D01*
X152415714Y-129166952D01*
X152510952Y-129119333D01*
X152749047Y-129119333D01*
X152844285Y-129166952D01*
X152891904Y-129214571D01*
X152939523Y-129309809D01*
X152939523Y-129547904D01*
X152891904Y-129643142D01*
X152844285Y-129690761D01*
X152749047Y-129738380D01*
X152510952Y-129738380D01*
X152415714Y-129690761D01*
X152368095Y-129643142D01*
X168370476Y-129690761D02*
X168513333Y-129738380D01*
X168751428Y-129738380D01*
X168846666Y-129690761D01*
X168894285Y-129643142D01*
X168941904Y-129547904D01*
X168941904Y-129452666D01*
X168894285Y-129357428D01*
X168846666Y-129309809D01*
X168751428Y-129262190D01*
X168560952Y-129214571D01*
X168465714Y-129166952D01*
X168418095Y-129119333D01*
X168370476Y-129024095D01*
X168370476Y-128928857D01*
X168418095Y-128833619D01*
X168465714Y-128786000D01*
X168560952Y-128738380D01*
X168799047Y-128738380D01*
X168941904Y-128786000D01*
X169275238Y-128738380D02*
X169513333Y-129738380D01*
X169703809Y-129024095D01*
X169894285Y-129738380D01*
X170132380Y-128738380D01*
X171037142Y-129738380D02*
X170465714Y-129738380D01*
X170751428Y-129738380D02*
X170751428Y-128738380D01*
X170656190Y-128881238D01*
X170560952Y-128976476D01*
X170465714Y-129024095D01*
X171894285Y-128738380D02*
X171703809Y-128738380D01*
X171608571Y-128786000D01*
X171560952Y-128833619D01*
X171465714Y-128976476D01*
X171418095Y-129166952D01*
X171418095Y-129547904D01*
X171465714Y-129643142D01*
X171513333Y-129690761D01*
X171608571Y-129738380D01*
X171799047Y-129738380D01*
X171894285Y-129690761D01*
X171941904Y-129643142D01*
X171989523Y-129547904D01*
X171989523Y-129309809D01*
X171941904Y-129214571D01*
X171894285Y-129166952D01*
X171799047Y-129119333D01*
X171608571Y-129119333D01*
X171513333Y-129166952D01*
X171465714Y-129214571D01*
X171418095Y-129309809D01*
X187420476Y-129690761D02*
X187563333Y-129738380D01*
X187801428Y-129738380D01*
X187896666Y-129690761D01*
X187944285Y-129643142D01*
X187991904Y-129547904D01*
X187991904Y-129452666D01*
X187944285Y-129357428D01*
X187896666Y-129309809D01*
X187801428Y-129262190D01*
X187610952Y-129214571D01*
X187515714Y-129166952D01*
X187468095Y-129119333D01*
X187420476Y-129024095D01*
X187420476Y-128928857D01*
X187468095Y-128833619D01*
X187515714Y-128786000D01*
X187610952Y-128738380D01*
X187849047Y-128738380D01*
X187991904Y-128786000D01*
X188325238Y-128738380D02*
X188563333Y-129738380D01*
X188753809Y-129024095D01*
X188944285Y-129738380D01*
X189182380Y-128738380D01*
X190087142Y-129738380D02*
X189515714Y-129738380D01*
X189801428Y-129738380D02*
X189801428Y-128738380D01*
X189706190Y-128881238D01*
X189610952Y-128976476D01*
X189515714Y-129024095D01*
X190420476Y-128738380D02*
X191087142Y-128738380D01*
X190658571Y-129738380D01*
X82645476Y-148740761D02*
X82788333Y-148788380D01*
X83026428Y-148788380D01*
X83121666Y-148740761D01*
X83169285Y-148693142D01*
X83216904Y-148597904D01*
X83216904Y-148502666D01*
X83169285Y-148407428D01*
X83121666Y-148359809D01*
X83026428Y-148312190D01*
X82835952Y-148264571D01*
X82740714Y-148216952D01*
X82693095Y-148169333D01*
X82645476Y-148074095D01*
X82645476Y-147978857D01*
X82693095Y-147883619D01*
X82740714Y-147836000D01*
X82835952Y-147788380D01*
X83074047Y-147788380D01*
X83216904Y-147836000D01*
X83550238Y-147788380D02*
X83788333Y-148788380D01*
X83978809Y-148074095D01*
X84169285Y-148788380D01*
X84407380Y-147788380D01*
X84740714Y-147883619D02*
X84788333Y-147836000D01*
X84883571Y-147788380D01*
X85121666Y-147788380D01*
X85216904Y-147836000D01*
X85264523Y-147883619D01*
X85312142Y-147978857D01*
X85312142Y-148074095D01*
X85264523Y-148216952D01*
X84693095Y-148788380D01*
X85312142Y-148788380D01*
X86264523Y-148788380D02*
X85693095Y-148788380D01*
X85978809Y-148788380D02*
X85978809Y-147788380D01*
X85883571Y-147931238D01*
X85788333Y-148026476D01*
X85693095Y-148074095D01*
X101695476Y-148740761D02*
X101838333Y-148788380D01*
X102076428Y-148788380D01*
X102171666Y-148740761D01*
X102219285Y-148693142D01*
X102266904Y-148597904D01*
X102266904Y-148502666D01*
X102219285Y-148407428D01*
X102171666Y-148359809D01*
X102076428Y-148312190D01*
X101885952Y-148264571D01*
X101790714Y-148216952D01*
X101743095Y-148169333D01*
X101695476Y-148074095D01*
X101695476Y-147978857D01*
X101743095Y-147883619D01*
X101790714Y-147836000D01*
X101885952Y-147788380D01*
X102124047Y-147788380D01*
X102266904Y-147836000D01*
X102600238Y-147788380D02*
X102838333Y-148788380D01*
X103028809Y-148074095D01*
X103219285Y-148788380D01*
X103457380Y-147788380D01*
X103790714Y-147883619D02*
X103838333Y-147836000D01*
X103933571Y-147788380D01*
X104171666Y-147788380D01*
X104266904Y-147836000D01*
X104314523Y-147883619D01*
X104362142Y-147978857D01*
X104362142Y-148074095D01*
X104314523Y-148216952D01*
X103743095Y-148788380D01*
X104362142Y-148788380D01*
X104743095Y-147883619D02*
X104790714Y-147836000D01*
X104885952Y-147788380D01*
X105124047Y-147788380D01*
X105219285Y-147836000D01*
X105266904Y-147883619D01*
X105314523Y-147978857D01*
X105314523Y-148074095D01*
X105266904Y-148216952D01*
X104695476Y-148788380D01*
X105314523Y-148788380D01*
X120745476Y-148740761D02*
X120888333Y-148788380D01*
X121126428Y-148788380D01*
X121221666Y-148740761D01*
X121269285Y-148693142D01*
X121316904Y-148597904D01*
X121316904Y-148502666D01*
X121269285Y-148407428D01*
X121221666Y-148359809D01*
X121126428Y-148312190D01*
X120935952Y-148264571D01*
X120840714Y-148216952D01*
X120793095Y-148169333D01*
X120745476Y-148074095D01*
X120745476Y-147978857D01*
X120793095Y-147883619D01*
X120840714Y-147836000D01*
X120935952Y-147788380D01*
X121174047Y-147788380D01*
X121316904Y-147836000D01*
X121650238Y-147788380D02*
X121888333Y-148788380D01*
X122078809Y-148074095D01*
X122269285Y-148788380D01*
X122507380Y-147788380D01*
X122840714Y-147883619D02*
X122888333Y-147836000D01*
X122983571Y-147788380D01*
X123221666Y-147788380D01*
X123316904Y-147836000D01*
X123364523Y-147883619D01*
X123412142Y-147978857D01*
X123412142Y-148074095D01*
X123364523Y-148216952D01*
X122793095Y-148788380D01*
X123412142Y-148788380D01*
X123745476Y-147788380D02*
X124364523Y-147788380D01*
X124031190Y-148169333D01*
X124174047Y-148169333D01*
X124269285Y-148216952D01*
X124316904Y-148264571D01*
X124364523Y-148359809D01*
X124364523Y-148597904D01*
X124316904Y-148693142D01*
X124269285Y-148740761D01*
X124174047Y-148788380D01*
X123888333Y-148788380D01*
X123793095Y-148740761D01*
X123745476Y-148693142D01*
X139795476Y-148740761D02*
X139938333Y-148788380D01*
X140176428Y-148788380D01*
X140271666Y-148740761D01*
X140319285Y-148693142D01*
X140366904Y-148597904D01*
X140366904Y-148502666D01*
X140319285Y-148407428D01*
X140271666Y-148359809D01*
X140176428Y-148312190D01*
X139985952Y-148264571D01*
X139890714Y-148216952D01*
X139843095Y-148169333D01*
X139795476Y-148074095D01*
X139795476Y-147978857D01*
X139843095Y-147883619D01*
X139890714Y-147836000D01*
X139985952Y-147788380D01*
X140224047Y-147788380D01*
X140366904Y-147836000D01*
X140700238Y-147788380D02*
X140938333Y-148788380D01*
X141128809Y-148074095D01*
X141319285Y-148788380D01*
X141557380Y-147788380D01*
X141890714Y-147883619D02*
X141938333Y-147836000D01*
X142033571Y-147788380D01*
X142271666Y-147788380D01*
X142366904Y-147836000D01*
X142414523Y-147883619D01*
X142462142Y-147978857D01*
X142462142Y-148074095D01*
X142414523Y-148216952D01*
X141843095Y-148788380D01*
X142462142Y-148788380D01*
X143319285Y-148121714D02*
X143319285Y-148788380D01*
X143081190Y-147740761D02*
X142843095Y-148455047D01*
X143462142Y-148455047D01*
X158845476Y-148740761D02*
X158988333Y-148788380D01*
X159226428Y-148788380D01*
X159321666Y-148740761D01*
X159369285Y-148693142D01*
X159416904Y-148597904D01*
X159416904Y-148502666D01*
X159369285Y-148407428D01*
X159321666Y-148359809D01*
X159226428Y-148312190D01*
X159035952Y-148264571D01*
X158940714Y-148216952D01*
X158893095Y-148169333D01*
X158845476Y-148074095D01*
X158845476Y-147978857D01*
X158893095Y-147883619D01*
X158940714Y-147836000D01*
X159035952Y-147788380D01*
X159274047Y-147788380D01*
X159416904Y-147836000D01*
X159750238Y-147788380D02*
X159988333Y-148788380D01*
X160178809Y-148074095D01*
X160369285Y-148788380D01*
X160607380Y-147788380D01*
X160940714Y-147883619D02*
X160988333Y-147836000D01*
X161083571Y-147788380D01*
X161321666Y-147788380D01*
X161416904Y-147836000D01*
X161464523Y-147883619D01*
X161512142Y-147978857D01*
X161512142Y-148074095D01*
X161464523Y-148216952D01*
X160893095Y-148788380D01*
X161512142Y-148788380D01*
X162416904Y-147788380D02*
X161940714Y-147788380D01*
X161893095Y-148264571D01*
X161940714Y-148216952D01*
X162035952Y-148169333D01*
X162274047Y-148169333D01*
X162369285Y-148216952D01*
X162416904Y-148264571D01*
X162464523Y-148359809D01*
X162464523Y-148597904D01*
X162416904Y-148693142D01*
X162369285Y-148740761D01*
X162274047Y-148788380D01*
X162035952Y-148788380D01*
X161940714Y-148740761D01*
X161893095Y-148693142D01*
X177895476Y-148740761D02*
X178038333Y-148788380D01*
X178276428Y-148788380D01*
X178371666Y-148740761D01*
X178419285Y-148693142D01*
X178466904Y-148597904D01*
X178466904Y-148502666D01*
X178419285Y-148407428D01*
X178371666Y-148359809D01*
X178276428Y-148312190D01*
X178085952Y-148264571D01*
X177990714Y-148216952D01*
X177943095Y-148169333D01*
X177895476Y-148074095D01*
X177895476Y-147978857D01*
X177943095Y-147883619D01*
X177990714Y-147836000D01*
X178085952Y-147788380D01*
X178324047Y-147788380D01*
X178466904Y-147836000D01*
X178800238Y-147788380D02*
X179038333Y-148788380D01*
X179228809Y-148074095D01*
X179419285Y-148788380D01*
X179657380Y-147788380D01*
X179990714Y-147883619D02*
X180038333Y-147836000D01*
X180133571Y-147788380D01*
X180371666Y-147788380D01*
X180466904Y-147836000D01*
X180514523Y-147883619D01*
X180562142Y-147978857D01*
X180562142Y-148074095D01*
X180514523Y-148216952D01*
X179943095Y-148788380D01*
X180562142Y-148788380D01*
X181419285Y-147788380D02*
X181228809Y-147788380D01*
X181133571Y-147836000D01*
X181085952Y-147883619D01*
X180990714Y-148026476D01*
X180943095Y-148216952D01*
X180943095Y-148597904D01*
X180990714Y-148693142D01*
X181038333Y-148740761D01*
X181133571Y-148788380D01*
X181324047Y-148788380D01*
X181419285Y-148740761D01*
X181466904Y-148693142D01*
X181514523Y-148597904D01*
X181514523Y-148359809D01*
X181466904Y-148264571D01*
X181419285Y-148216952D01*
X181324047Y-148169333D01*
X181133571Y-148169333D01*
X181038333Y-148216952D01*
X180990714Y-148264571D01*
X180943095Y-148359809D01*
X196945476Y-148740761D02*
X197088333Y-148788380D01*
X197326428Y-148788380D01*
X197421666Y-148740761D01*
X197469285Y-148693142D01*
X197516904Y-148597904D01*
X197516904Y-148502666D01*
X197469285Y-148407428D01*
X197421666Y-148359809D01*
X197326428Y-148312190D01*
X197135952Y-148264571D01*
X197040714Y-148216952D01*
X196993095Y-148169333D01*
X196945476Y-148074095D01*
X196945476Y-147978857D01*
X196993095Y-147883619D01*
X197040714Y-147836000D01*
X197135952Y-147788380D01*
X197374047Y-147788380D01*
X197516904Y-147836000D01*
X197850238Y-147788380D02*
X198088333Y-148788380D01*
X198278809Y-148074095D01*
X198469285Y-148788380D01*
X198707380Y-147788380D01*
X199040714Y-147883619D02*
X199088333Y-147836000D01*
X199183571Y-147788380D01*
X199421666Y-147788380D01*
X199516904Y-147836000D01*
X199564523Y-147883619D01*
X199612142Y-147978857D01*
X199612142Y-148074095D01*
X199564523Y-148216952D01*
X198993095Y-148788380D01*
X199612142Y-148788380D01*
X199945476Y-147788380D02*
X200612142Y-147788380D01*
X200183571Y-148788380D01*
X73120476Y-167790761D02*
X73263333Y-167838380D01*
X73501428Y-167838380D01*
X73596666Y-167790761D01*
X73644285Y-167743142D01*
X73691904Y-167647904D01*
X73691904Y-167552666D01*
X73644285Y-167457428D01*
X73596666Y-167409809D01*
X73501428Y-167362190D01*
X73310952Y-167314571D01*
X73215714Y-167266952D01*
X73168095Y-167219333D01*
X73120476Y-167124095D01*
X73120476Y-167028857D01*
X73168095Y-166933619D01*
X73215714Y-166886000D01*
X73310952Y-166838380D01*
X73549047Y-166838380D01*
X73691904Y-166886000D01*
X74025238Y-166838380D02*
X74263333Y-167838380D01*
X74453809Y-167124095D01*
X74644285Y-167838380D01*
X74882380Y-166838380D01*
X75168095Y-166838380D02*
X75787142Y-166838380D01*
X75453809Y-167219333D01*
X75596666Y-167219333D01*
X75691904Y-167266952D01*
X75739523Y-167314571D01*
X75787142Y-167409809D01*
X75787142Y-167647904D01*
X75739523Y-167743142D01*
X75691904Y-167790761D01*
X75596666Y-167838380D01*
X75310952Y-167838380D01*
X75215714Y-167790761D01*
X75168095Y-167743142D01*
X76739523Y-167838380D02*
X76168095Y-167838380D01*
X76453809Y-167838380D02*
X76453809Y-166838380D01*
X76358571Y-166981238D01*
X76263333Y-167076476D01*
X76168095Y-167124095D01*
X92170476Y-167790761D02*
X92313333Y-167838380D01*
X92551428Y-167838380D01*
X92646666Y-167790761D01*
X92694285Y-167743142D01*
X92741904Y-167647904D01*
X92741904Y-167552666D01*
X92694285Y-167457428D01*
X92646666Y-167409809D01*
X92551428Y-167362190D01*
X92360952Y-167314571D01*
X92265714Y-167266952D01*
X92218095Y-167219333D01*
X92170476Y-167124095D01*
X92170476Y-167028857D01*
X92218095Y-166933619D01*
X92265714Y-166886000D01*
X92360952Y-166838380D01*
X92599047Y-166838380D01*
X92741904Y-166886000D01*
X93075238Y-166838380D02*
X93313333Y-167838380D01*
X93503809Y-167124095D01*
X93694285Y-167838380D01*
X93932380Y-166838380D01*
X94218095Y-166838380D02*
X94837142Y-166838380D01*
X94503809Y-167219333D01*
X94646666Y-167219333D01*
X94741904Y-167266952D01*
X94789523Y-167314571D01*
X94837142Y-167409809D01*
X94837142Y-167647904D01*
X94789523Y-167743142D01*
X94741904Y-167790761D01*
X94646666Y-167838380D01*
X94360952Y-167838380D01*
X94265714Y-167790761D01*
X94218095Y-167743142D01*
X95218095Y-166933619D02*
X95265714Y-166886000D01*
X95360952Y-166838380D01*
X95599047Y-166838380D01*
X95694285Y-166886000D01*
X95741904Y-166933619D01*
X95789523Y-167028857D01*
X95789523Y-167124095D01*
X95741904Y-167266952D01*
X95170476Y-167838380D01*
X95789523Y-167838380D01*
X111220476Y-167790761D02*
X111363333Y-167838380D01*
X111601428Y-167838380D01*
X111696666Y-167790761D01*
X111744285Y-167743142D01*
X111791904Y-167647904D01*
X111791904Y-167552666D01*
X111744285Y-167457428D01*
X111696666Y-167409809D01*
X111601428Y-167362190D01*
X111410952Y-167314571D01*
X111315714Y-167266952D01*
X111268095Y-167219333D01*
X111220476Y-167124095D01*
X111220476Y-167028857D01*
X111268095Y-166933619D01*
X111315714Y-166886000D01*
X111410952Y-166838380D01*
X111649047Y-166838380D01*
X111791904Y-166886000D01*
X112125238Y-166838380D02*
X112363333Y-167838380D01*
X112553809Y-167124095D01*
X112744285Y-167838380D01*
X112982380Y-166838380D01*
X113268095Y-166838380D02*
X113887142Y-166838380D01*
X113553809Y-167219333D01*
X113696666Y-167219333D01*
X113791904Y-167266952D01*
X113839523Y-167314571D01*
X113887142Y-167409809D01*
X113887142Y-167647904D01*
X113839523Y-167743142D01*
X113791904Y-167790761D01*
X113696666Y-167838380D01*
X113410952Y-167838380D01*
X113315714Y-167790761D01*
X113268095Y-167743142D01*
X114220476Y-166838380D02*
X114839523Y-166838380D01*
X114506190Y-167219333D01*
X114649047Y-167219333D01*
X114744285Y-167266952D01*
X114791904Y-167314571D01*
X114839523Y-167409809D01*
X114839523Y-167647904D01*
X114791904Y-167743142D01*
X114744285Y-167790761D01*
X114649047Y-167838380D01*
X114363333Y-167838380D01*
X114268095Y-167790761D01*
X114220476Y-167743142D01*
X130270476Y-167790761D02*
X130413333Y-167838380D01*
X130651428Y-167838380D01*
X130746666Y-167790761D01*
X130794285Y-167743142D01*
X130841904Y-167647904D01*
X130841904Y-167552666D01*
X130794285Y-167457428D01*
X130746666Y-167409809D01*
X130651428Y-167362190D01*
X130460952Y-167314571D01*
X130365714Y-167266952D01*
X130318095Y-167219333D01*
X130270476Y-167124095D01*
X130270476Y-167028857D01*
X130318095Y-166933619D01*
X130365714Y-166886000D01*
X130460952Y-166838380D01*
X130699047Y-166838380D01*
X130841904Y-166886000D01*
X131175238Y-166838380D02*
X131413333Y-167838380D01*
X131603809Y-167124095D01*
X131794285Y-167838380D01*
X132032380Y-166838380D01*
X132318095Y-166838380D02*
X132937142Y-166838380D01*
X132603809Y-167219333D01*
X132746666Y-167219333D01*
X132841904Y-167266952D01*
X132889523Y-167314571D01*
X132937142Y-167409809D01*
X132937142Y-167647904D01*
X132889523Y-167743142D01*
X132841904Y-167790761D01*
X132746666Y-167838380D01*
X132460952Y-167838380D01*
X132365714Y-167790761D01*
X132318095Y-167743142D01*
X133794285Y-167171714D02*
X133794285Y-167838380D01*
X133556190Y-166790761D02*
X133318095Y-167505047D01*
X133937142Y-167505047D01*
X149320476Y-167790761D02*
X149463333Y-167838380D01*
X149701428Y-167838380D01*
X149796666Y-167790761D01*
X149844285Y-167743142D01*
X149891904Y-167647904D01*
X149891904Y-167552666D01*
X149844285Y-167457428D01*
X149796666Y-167409809D01*
X149701428Y-167362190D01*
X149510952Y-167314571D01*
X149415714Y-167266952D01*
X149368095Y-167219333D01*
X149320476Y-167124095D01*
X149320476Y-167028857D01*
X149368095Y-166933619D01*
X149415714Y-166886000D01*
X149510952Y-166838380D01*
X149749047Y-166838380D01*
X149891904Y-166886000D01*
X150225238Y-166838380D02*
X150463333Y-167838380D01*
X150653809Y-167124095D01*
X150844285Y-167838380D01*
X151082380Y-166838380D01*
X151368095Y-166838380D02*
X151987142Y-166838380D01*
X151653809Y-167219333D01*
X151796666Y-167219333D01*
X151891904Y-167266952D01*
X151939523Y-167314571D01*
X151987142Y-167409809D01*
X151987142Y-167647904D01*
X151939523Y-167743142D01*
X151891904Y-167790761D01*
X151796666Y-167838380D01*
X151510952Y-167838380D01*
X151415714Y-167790761D01*
X151368095Y-167743142D01*
X152891904Y-166838380D02*
X152415714Y-166838380D01*
X152368095Y-167314571D01*
X152415714Y-167266952D01*
X152510952Y-167219333D01*
X152749047Y-167219333D01*
X152844285Y-167266952D01*
X152891904Y-167314571D01*
X152939523Y-167409809D01*
X152939523Y-167647904D01*
X152891904Y-167743142D01*
X152844285Y-167790761D01*
X152749047Y-167838380D01*
X152510952Y-167838380D01*
X152415714Y-167790761D01*
X152368095Y-167743142D01*
X168370476Y-167790761D02*
X168513333Y-167838380D01*
X168751428Y-167838380D01*
X168846666Y-167790761D01*
X168894285Y-167743142D01*
X168941904Y-167647904D01*
X168941904Y-167552666D01*
X168894285Y-167457428D01*
X168846666Y-167409809D01*
X168751428Y-167362190D01*
X168560952Y-167314571D01*
X168465714Y-167266952D01*
X168418095Y-167219333D01*
X168370476Y-167124095D01*
X168370476Y-167028857D01*
X168418095Y-166933619D01*
X168465714Y-166886000D01*
X168560952Y-166838380D01*
X168799047Y-166838380D01*
X168941904Y-166886000D01*
X169275238Y-166838380D02*
X169513333Y-167838380D01*
X169703809Y-167124095D01*
X169894285Y-167838380D01*
X170132380Y-166838380D01*
X170418095Y-166838380D02*
X171037142Y-166838380D01*
X170703809Y-167219333D01*
X170846666Y-167219333D01*
X170941904Y-167266952D01*
X170989523Y-167314571D01*
X171037142Y-167409809D01*
X171037142Y-167647904D01*
X170989523Y-167743142D01*
X170941904Y-167790761D01*
X170846666Y-167838380D01*
X170560952Y-167838380D01*
X170465714Y-167790761D01*
X170418095Y-167743142D01*
X171894285Y-166838380D02*
X171703809Y-166838380D01*
X171608571Y-166886000D01*
X171560952Y-166933619D01*
X171465714Y-167076476D01*
X171418095Y-167266952D01*
X171418095Y-167647904D01*
X171465714Y-167743142D01*
X171513333Y-167790761D01*
X171608571Y-167838380D01*
X171799047Y-167838380D01*
X171894285Y-167790761D01*
X171941904Y-167743142D01*
X171989523Y-167647904D01*
X171989523Y-167409809D01*
X171941904Y-167314571D01*
X171894285Y-167266952D01*
X171799047Y-167219333D01*
X171608571Y-167219333D01*
X171513333Y-167266952D01*
X171465714Y-167314571D01*
X171418095Y-167409809D01*
X187420476Y-167790761D02*
X187563333Y-167838380D01*
X187801428Y-167838380D01*
X187896666Y-167790761D01*
X187944285Y-167743142D01*
X187991904Y-167647904D01*
X187991904Y-167552666D01*
X187944285Y-167457428D01*
X187896666Y-167409809D01*
X187801428Y-167362190D01*
X187610952Y-167314571D01*
X187515714Y-167266952D01*
X187468095Y-167219333D01*
X187420476Y-167124095D01*
X187420476Y-167028857D01*
X187468095Y-166933619D01*
X187515714Y-166886000D01*
X187610952Y-166838380D01*
X187849047Y-166838380D01*
X187991904Y-166886000D01*
X188325238Y-166838380D02*
X188563333Y-167838380D01*
X188753809Y-167124095D01*
X188944285Y-167838380D01*
X189182380Y-166838380D01*
X189468095Y-166838380D02*
X190087142Y-166838380D01*
X189753809Y-167219333D01*
X189896666Y-167219333D01*
X189991904Y-167266952D01*
X190039523Y-167314571D01*
X190087142Y-167409809D01*
X190087142Y-167647904D01*
X190039523Y-167743142D01*
X189991904Y-167790761D01*
X189896666Y-167838380D01*
X189610952Y-167838380D01*
X189515714Y-167790761D01*
X189468095Y-167743142D01*
X190420476Y-166838380D02*
X191087142Y-166838380D01*
X190658571Y-167838380D01*
X206470476Y-129690761D02*
X206613333Y-129738380D01*
X206851428Y-129738380D01*
X206946666Y-129690761D01*
X206994285Y-129643142D01*
X207041904Y-129547904D01*
X207041904Y-129452666D01*
X206994285Y-129357428D01*
X206946666Y-129309809D01*
X206851428Y-129262190D01*
X206660952Y-129214571D01*
X206565714Y-129166952D01*
X206518095Y-129119333D01*
X206470476Y-129024095D01*
X206470476Y-128928857D01*
X206518095Y-128833619D01*
X206565714Y-128786000D01*
X206660952Y-128738380D01*
X206899047Y-128738380D01*
X207041904Y-128786000D01*
X207375238Y-128738380D02*
X207613333Y-129738380D01*
X207803809Y-129024095D01*
X207994285Y-129738380D01*
X208232380Y-128738380D01*
X209041904Y-129071714D02*
X209041904Y-129738380D01*
X208803809Y-128690761D02*
X208565714Y-129405047D01*
X209184761Y-129405047D01*
X210089523Y-129738380D02*
X209518095Y-129738380D01*
X209803809Y-129738380D02*
X209803809Y-128738380D01*
X209708571Y-128881238D01*
X209613333Y-128976476D01*
X209518095Y-129024095D01*
X244570476Y-129690761D02*
X244713333Y-129738380D01*
X244951428Y-129738380D01*
X245046666Y-129690761D01*
X245094285Y-129643142D01*
X245141904Y-129547904D01*
X245141904Y-129452666D01*
X245094285Y-129357428D01*
X245046666Y-129309809D01*
X244951428Y-129262190D01*
X244760952Y-129214571D01*
X244665714Y-129166952D01*
X244618095Y-129119333D01*
X244570476Y-129024095D01*
X244570476Y-128928857D01*
X244618095Y-128833619D01*
X244665714Y-128786000D01*
X244760952Y-128738380D01*
X244999047Y-128738380D01*
X245141904Y-128786000D01*
X245475238Y-128738380D02*
X245713333Y-129738380D01*
X245903809Y-129024095D01*
X246094285Y-129738380D01*
X246332380Y-128738380D01*
X247141904Y-129071714D02*
X247141904Y-129738380D01*
X246903809Y-128690761D02*
X246665714Y-129405047D01*
X247284761Y-129405047D01*
X247570476Y-128738380D02*
X248189523Y-128738380D01*
X247856190Y-129119333D01*
X247999047Y-129119333D01*
X248094285Y-129166952D01*
X248141904Y-129214571D01*
X248189523Y-129309809D01*
X248189523Y-129547904D01*
X248141904Y-129643142D01*
X248094285Y-129690761D01*
X247999047Y-129738380D01*
X247713333Y-129738380D01*
X247618095Y-129690761D01*
X247570476Y-129643142D01*
X263620476Y-129690761D02*
X263763333Y-129738380D01*
X264001428Y-129738380D01*
X264096666Y-129690761D01*
X264144285Y-129643142D01*
X264191904Y-129547904D01*
X264191904Y-129452666D01*
X264144285Y-129357428D01*
X264096666Y-129309809D01*
X264001428Y-129262190D01*
X263810952Y-129214571D01*
X263715714Y-129166952D01*
X263668095Y-129119333D01*
X263620476Y-129024095D01*
X263620476Y-128928857D01*
X263668095Y-128833619D01*
X263715714Y-128786000D01*
X263810952Y-128738380D01*
X264049047Y-128738380D01*
X264191904Y-128786000D01*
X264525238Y-128738380D02*
X264763333Y-129738380D01*
X264953809Y-129024095D01*
X265144285Y-129738380D01*
X265382380Y-128738380D01*
X266191904Y-129071714D02*
X266191904Y-129738380D01*
X265953809Y-128690761D02*
X265715714Y-129405047D01*
X266334761Y-129405047D01*
X267144285Y-129071714D02*
X267144285Y-129738380D01*
X266906190Y-128690761D02*
X266668095Y-129405047D01*
X267287142Y-129405047D01*
X282670476Y-129690761D02*
X282813333Y-129738380D01*
X283051428Y-129738380D01*
X283146666Y-129690761D01*
X283194285Y-129643142D01*
X283241904Y-129547904D01*
X283241904Y-129452666D01*
X283194285Y-129357428D01*
X283146666Y-129309809D01*
X283051428Y-129262190D01*
X282860952Y-129214571D01*
X282765714Y-129166952D01*
X282718095Y-129119333D01*
X282670476Y-129024095D01*
X282670476Y-128928857D01*
X282718095Y-128833619D01*
X282765714Y-128786000D01*
X282860952Y-128738380D01*
X283099047Y-128738380D01*
X283241904Y-128786000D01*
X283575238Y-128738380D02*
X283813333Y-129738380D01*
X284003809Y-129024095D01*
X284194285Y-129738380D01*
X284432380Y-128738380D01*
X285241904Y-129071714D02*
X285241904Y-129738380D01*
X285003809Y-128690761D02*
X284765714Y-129405047D01*
X285384761Y-129405047D01*
X286241904Y-128738380D02*
X285765714Y-128738380D01*
X285718095Y-129214571D01*
X285765714Y-129166952D01*
X285860952Y-129119333D01*
X286099047Y-129119333D01*
X286194285Y-129166952D01*
X286241904Y-129214571D01*
X286289523Y-129309809D01*
X286289523Y-129547904D01*
X286241904Y-129643142D01*
X286194285Y-129690761D01*
X286099047Y-129738380D01*
X285860952Y-129738380D01*
X285765714Y-129690761D01*
X285718095Y-129643142D01*
X301720476Y-129690761D02*
X301863333Y-129738380D01*
X302101428Y-129738380D01*
X302196666Y-129690761D01*
X302244285Y-129643142D01*
X302291904Y-129547904D01*
X302291904Y-129452666D01*
X302244285Y-129357428D01*
X302196666Y-129309809D01*
X302101428Y-129262190D01*
X301910952Y-129214571D01*
X301815714Y-129166952D01*
X301768095Y-129119333D01*
X301720476Y-129024095D01*
X301720476Y-128928857D01*
X301768095Y-128833619D01*
X301815714Y-128786000D01*
X301910952Y-128738380D01*
X302149047Y-128738380D01*
X302291904Y-128786000D01*
X302625238Y-128738380D02*
X302863333Y-129738380D01*
X303053809Y-129024095D01*
X303244285Y-129738380D01*
X303482380Y-128738380D01*
X304291904Y-129071714D02*
X304291904Y-129738380D01*
X304053809Y-128690761D02*
X303815714Y-129405047D01*
X304434761Y-129405047D01*
X305244285Y-128738380D02*
X305053809Y-128738380D01*
X304958571Y-128786000D01*
X304910952Y-128833619D01*
X304815714Y-128976476D01*
X304768095Y-129166952D01*
X304768095Y-129547904D01*
X304815714Y-129643142D01*
X304863333Y-129690761D01*
X304958571Y-129738380D01*
X305149047Y-129738380D01*
X305244285Y-129690761D01*
X305291904Y-129643142D01*
X305339523Y-129547904D01*
X305339523Y-129309809D01*
X305291904Y-129214571D01*
X305244285Y-129166952D01*
X305149047Y-129119333D01*
X304958571Y-129119333D01*
X304863333Y-129166952D01*
X304815714Y-129214571D01*
X304768095Y-129309809D01*
X215995476Y-148740761D02*
X216138333Y-148788380D01*
X216376428Y-148788380D01*
X216471666Y-148740761D01*
X216519285Y-148693142D01*
X216566904Y-148597904D01*
X216566904Y-148502666D01*
X216519285Y-148407428D01*
X216471666Y-148359809D01*
X216376428Y-148312190D01*
X216185952Y-148264571D01*
X216090714Y-148216952D01*
X216043095Y-148169333D01*
X215995476Y-148074095D01*
X215995476Y-147978857D01*
X216043095Y-147883619D01*
X216090714Y-147836000D01*
X216185952Y-147788380D01*
X216424047Y-147788380D01*
X216566904Y-147836000D01*
X216900238Y-147788380D02*
X217138333Y-148788380D01*
X217328809Y-148074095D01*
X217519285Y-148788380D01*
X217757380Y-147788380D01*
X218614523Y-147788380D02*
X218138333Y-147788380D01*
X218090714Y-148264571D01*
X218138333Y-148216952D01*
X218233571Y-148169333D01*
X218471666Y-148169333D01*
X218566904Y-148216952D01*
X218614523Y-148264571D01*
X218662142Y-148359809D01*
X218662142Y-148597904D01*
X218614523Y-148693142D01*
X218566904Y-148740761D01*
X218471666Y-148788380D01*
X218233571Y-148788380D01*
X218138333Y-148740761D01*
X218090714Y-148693142D01*
X219614523Y-148788380D02*
X219043095Y-148788380D01*
X219328809Y-148788380D02*
X219328809Y-147788380D01*
X219233571Y-147931238D01*
X219138333Y-148026476D01*
X219043095Y-148074095D01*
X235045476Y-148740761D02*
X235188333Y-148788380D01*
X235426428Y-148788380D01*
X235521666Y-148740761D01*
X235569285Y-148693142D01*
X235616904Y-148597904D01*
X235616904Y-148502666D01*
X235569285Y-148407428D01*
X235521666Y-148359809D01*
X235426428Y-148312190D01*
X235235952Y-148264571D01*
X235140714Y-148216952D01*
X235093095Y-148169333D01*
X235045476Y-148074095D01*
X235045476Y-147978857D01*
X235093095Y-147883619D01*
X235140714Y-147836000D01*
X235235952Y-147788380D01*
X235474047Y-147788380D01*
X235616904Y-147836000D01*
X235950238Y-147788380D02*
X236188333Y-148788380D01*
X236378809Y-148074095D01*
X236569285Y-148788380D01*
X236807380Y-147788380D01*
X237664523Y-147788380D02*
X237188333Y-147788380D01*
X237140714Y-148264571D01*
X237188333Y-148216952D01*
X237283571Y-148169333D01*
X237521666Y-148169333D01*
X237616904Y-148216952D01*
X237664523Y-148264571D01*
X237712142Y-148359809D01*
X237712142Y-148597904D01*
X237664523Y-148693142D01*
X237616904Y-148740761D01*
X237521666Y-148788380D01*
X237283571Y-148788380D01*
X237188333Y-148740761D01*
X237140714Y-148693142D01*
X238093095Y-147883619D02*
X238140714Y-147836000D01*
X238235952Y-147788380D01*
X238474047Y-147788380D01*
X238569285Y-147836000D01*
X238616904Y-147883619D01*
X238664523Y-147978857D01*
X238664523Y-148074095D01*
X238616904Y-148216952D01*
X238045476Y-148788380D01*
X238664523Y-148788380D01*
X254095476Y-148740761D02*
X254238333Y-148788380D01*
X254476428Y-148788380D01*
X254571666Y-148740761D01*
X254619285Y-148693142D01*
X254666904Y-148597904D01*
X254666904Y-148502666D01*
X254619285Y-148407428D01*
X254571666Y-148359809D01*
X254476428Y-148312190D01*
X254285952Y-148264571D01*
X254190714Y-148216952D01*
X254143095Y-148169333D01*
X254095476Y-148074095D01*
X254095476Y-147978857D01*
X254143095Y-147883619D01*
X254190714Y-147836000D01*
X254285952Y-147788380D01*
X254524047Y-147788380D01*
X254666904Y-147836000D01*
X255000238Y-147788380D02*
X255238333Y-148788380D01*
X255428809Y-148074095D01*
X255619285Y-148788380D01*
X255857380Y-147788380D01*
X256714523Y-147788380D02*
X256238333Y-147788380D01*
X256190714Y-148264571D01*
X256238333Y-148216952D01*
X256333571Y-148169333D01*
X256571666Y-148169333D01*
X256666904Y-148216952D01*
X256714523Y-148264571D01*
X256762142Y-148359809D01*
X256762142Y-148597904D01*
X256714523Y-148693142D01*
X256666904Y-148740761D01*
X256571666Y-148788380D01*
X256333571Y-148788380D01*
X256238333Y-148740761D01*
X256190714Y-148693142D01*
X257095476Y-147788380D02*
X257714523Y-147788380D01*
X257381190Y-148169333D01*
X257524047Y-148169333D01*
X257619285Y-148216952D01*
X257666904Y-148264571D01*
X257714523Y-148359809D01*
X257714523Y-148597904D01*
X257666904Y-148693142D01*
X257619285Y-148740761D01*
X257524047Y-148788380D01*
X257238333Y-148788380D01*
X257143095Y-148740761D01*
X257095476Y-148693142D01*
X273145476Y-148740761D02*
X273288333Y-148788380D01*
X273526428Y-148788380D01*
X273621666Y-148740761D01*
X273669285Y-148693142D01*
X273716904Y-148597904D01*
X273716904Y-148502666D01*
X273669285Y-148407428D01*
X273621666Y-148359809D01*
X273526428Y-148312190D01*
X273335952Y-148264571D01*
X273240714Y-148216952D01*
X273193095Y-148169333D01*
X273145476Y-148074095D01*
X273145476Y-147978857D01*
X273193095Y-147883619D01*
X273240714Y-147836000D01*
X273335952Y-147788380D01*
X273574047Y-147788380D01*
X273716904Y-147836000D01*
X274050238Y-147788380D02*
X274288333Y-148788380D01*
X274478809Y-148074095D01*
X274669285Y-148788380D01*
X274907380Y-147788380D01*
X275764523Y-147788380D02*
X275288333Y-147788380D01*
X275240714Y-148264571D01*
X275288333Y-148216952D01*
X275383571Y-148169333D01*
X275621666Y-148169333D01*
X275716904Y-148216952D01*
X275764523Y-148264571D01*
X275812142Y-148359809D01*
X275812142Y-148597904D01*
X275764523Y-148693142D01*
X275716904Y-148740761D01*
X275621666Y-148788380D01*
X275383571Y-148788380D01*
X275288333Y-148740761D01*
X275240714Y-148693142D01*
X276669285Y-148121714D02*
X276669285Y-148788380D01*
X276431190Y-147740761D02*
X276193095Y-148455047D01*
X276812142Y-148455047D01*
X292195476Y-148740761D02*
X292338333Y-148788380D01*
X292576428Y-148788380D01*
X292671666Y-148740761D01*
X292719285Y-148693142D01*
X292766904Y-148597904D01*
X292766904Y-148502666D01*
X292719285Y-148407428D01*
X292671666Y-148359809D01*
X292576428Y-148312190D01*
X292385952Y-148264571D01*
X292290714Y-148216952D01*
X292243095Y-148169333D01*
X292195476Y-148074095D01*
X292195476Y-147978857D01*
X292243095Y-147883619D01*
X292290714Y-147836000D01*
X292385952Y-147788380D01*
X292624047Y-147788380D01*
X292766904Y-147836000D01*
X293100238Y-147788380D02*
X293338333Y-148788380D01*
X293528809Y-148074095D01*
X293719285Y-148788380D01*
X293957380Y-147788380D01*
X294814523Y-147788380D02*
X294338333Y-147788380D01*
X294290714Y-148264571D01*
X294338333Y-148216952D01*
X294433571Y-148169333D01*
X294671666Y-148169333D01*
X294766904Y-148216952D01*
X294814523Y-148264571D01*
X294862142Y-148359809D01*
X294862142Y-148597904D01*
X294814523Y-148693142D01*
X294766904Y-148740761D01*
X294671666Y-148788380D01*
X294433571Y-148788380D01*
X294338333Y-148740761D01*
X294290714Y-148693142D01*
X295766904Y-147788380D02*
X295290714Y-147788380D01*
X295243095Y-148264571D01*
X295290714Y-148216952D01*
X295385952Y-148169333D01*
X295624047Y-148169333D01*
X295719285Y-148216952D01*
X295766904Y-148264571D01*
X295814523Y-148359809D01*
X295814523Y-148597904D01*
X295766904Y-148693142D01*
X295719285Y-148740761D01*
X295624047Y-148788380D01*
X295385952Y-148788380D01*
X295290714Y-148740761D01*
X295243095Y-148693142D01*
X311245476Y-148740761D02*
X311388333Y-148788380D01*
X311626428Y-148788380D01*
X311721666Y-148740761D01*
X311769285Y-148693142D01*
X311816904Y-148597904D01*
X311816904Y-148502666D01*
X311769285Y-148407428D01*
X311721666Y-148359809D01*
X311626428Y-148312190D01*
X311435952Y-148264571D01*
X311340714Y-148216952D01*
X311293095Y-148169333D01*
X311245476Y-148074095D01*
X311245476Y-147978857D01*
X311293095Y-147883619D01*
X311340714Y-147836000D01*
X311435952Y-147788380D01*
X311674047Y-147788380D01*
X311816904Y-147836000D01*
X312150238Y-147788380D02*
X312388333Y-148788380D01*
X312578809Y-148074095D01*
X312769285Y-148788380D01*
X313007380Y-147788380D01*
X313864523Y-147788380D02*
X313388333Y-147788380D01*
X313340714Y-148264571D01*
X313388333Y-148216952D01*
X313483571Y-148169333D01*
X313721666Y-148169333D01*
X313816904Y-148216952D01*
X313864523Y-148264571D01*
X313912142Y-148359809D01*
X313912142Y-148597904D01*
X313864523Y-148693142D01*
X313816904Y-148740761D01*
X313721666Y-148788380D01*
X313483571Y-148788380D01*
X313388333Y-148740761D01*
X313340714Y-148693142D01*
X314769285Y-147788380D02*
X314578809Y-147788380D01*
X314483571Y-147836000D01*
X314435952Y-147883619D01*
X314340714Y-148026476D01*
X314293095Y-148216952D01*
X314293095Y-148597904D01*
X314340714Y-148693142D01*
X314388333Y-148740761D01*
X314483571Y-148788380D01*
X314674047Y-148788380D01*
X314769285Y-148740761D01*
X314816904Y-148693142D01*
X314864523Y-148597904D01*
X314864523Y-148359809D01*
X314816904Y-148264571D01*
X314769285Y-148216952D01*
X314674047Y-148169333D01*
X314483571Y-148169333D01*
X314388333Y-148216952D01*
X314340714Y-148264571D01*
X314293095Y-148359809D01*
X330295476Y-148740761D02*
X330438333Y-148788380D01*
X330676428Y-148788380D01*
X330771666Y-148740761D01*
X330819285Y-148693142D01*
X330866904Y-148597904D01*
X330866904Y-148502666D01*
X330819285Y-148407428D01*
X330771666Y-148359809D01*
X330676428Y-148312190D01*
X330485952Y-148264571D01*
X330390714Y-148216952D01*
X330343095Y-148169333D01*
X330295476Y-148074095D01*
X330295476Y-147978857D01*
X330343095Y-147883619D01*
X330390714Y-147836000D01*
X330485952Y-147788380D01*
X330724047Y-147788380D01*
X330866904Y-147836000D01*
X331200238Y-147788380D02*
X331438333Y-148788380D01*
X331628809Y-148074095D01*
X331819285Y-148788380D01*
X332057380Y-147788380D01*
X332914523Y-147788380D02*
X332438333Y-147788380D01*
X332390714Y-148264571D01*
X332438333Y-148216952D01*
X332533571Y-148169333D01*
X332771666Y-148169333D01*
X332866904Y-148216952D01*
X332914523Y-148264571D01*
X332962142Y-148359809D01*
X332962142Y-148597904D01*
X332914523Y-148693142D01*
X332866904Y-148740761D01*
X332771666Y-148788380D01*
X332533571Y-148788380D01*
X332438333Y-148740761D01*
X332390714Y-148693142D01*
X333295476Y-147788380D02*
X333962142Y-147788380D01*
X333533571Y-148788380D01*
X206470476Y-167790761D02*
X206613333Y-167838380D01*
X206851428Y-167838380D01*
X206946666Y-167790761D01*
X206994285Y-167743142D01*
X207041904Y-167647904D01*
X207041904Y-167552666D01*
X206994285Y-167457428D01*
X206946666Y-167409809D01*
X206851428Y-167362190D01*
X206660952Y-167314571D01*
X206565714Y-167266952D01*
X206518095Y-167219333D01*
X206470476Y-167124095D01*
X206470476Y-167028857D01*
X206518095Y-166933619D01*
X206565714Y-166886000D01*
X206660952Y-166838380D01*
X206899047Y-166838380D01*
X207041904Y-166886000D01*
X207375238Y-166838380D02*
X207613333Y-167838380D01*
X207803809Y-167124095D01*
X207994285Y-167838380D01*
X208232380Y-166838380D01*
X209041904Y-166838380D02*
X208851428Y-166838380D01*
X208756190Y-166886000D01*
X208708571Y-166933619D01*
X208613333Y-167076476D01*
X208565714Y-167266952D01*
X208565714Y-167647904D01*
X208613333Y-167743142D01*
X208660952Y-167790761D01*
X208756190Y-167838380D01*
X208946666Y-167838380D01*
X209041904Y-167790761D01*
X209089523Y-167743142D01*
X209137142Y-167647904D01*
X209137142Y-167409809D01*
X209089523Y-167314571D01*
X209041904Y-167266952D01*
X208946666Y-167219333D01*
X208756190Y-167219333D01*
X208660952Y-167266952D01*
X208613333Y-167314571D01*
X208565714Y-167409809D01*
X210089523Y-167838380D02*
X209518095Y-167838380D01*
X209803809Y-167838380D02*
X209803809Y-166838380D01*
X209708571Y-166981238D01*
X209613333Y-167076476D01*
X209518095Y-167124095D01*
X225520476Y-167790761D02*
X225663333Y-167838380D01*
X225901428Y-167838380D01*
X225996666Y-167790761D01*
X226044285Y-167743142D01*
X226091904Y-167647904D01*
X226091904Y-167552666D01*
X226044285Y-167457428D01*
X225996666Y-167409809D01*
X225901428Y-167362190D01*
X225710952Y-167314571D01*
X225615714Y-167266952D01*
X225568095Y-167219333D01*
X225520476Y-167124095D01*
X225520476Y-167028857D01*
X225568095Y-166933619D01*
X225615714Y-166886000D01*
X225710952Y-166838380D01*
X225949047Y-166838380D01*
X226091904Y-166886000D01*
X226425238Y-166838380D02*
X226663333Y-167838380D01*
X226853809Y-167124095D01*
X227044285Y-167838380D01*
X227282380Y-166838380D01*
X228091904Y-166838380D02*
X227901428Y-166838380D01*
X227806190Y-166886000D01*
X227758571Y-166933619D01*
X227663333Y-167076476D01*
X227615714Y-167266952D01*
X227615714Y-167647904D01*
X227663333Y-167743142D01*
X227710952Y-167790761D01*
X227806190Y-167838380D01*
X227996666Y-167838380D01*
X228091904Y-167790761D01*
X228139523Y-167743142D01*
X228187142Y-167647904D01*
X228187142Y-167409809D01*
X228139523Y-167314571D01*
X228091904Y-167266952D01*
X227996666Y-167219333D01*
X227806190Y-167219333D01*
X227710952Y-167266952D01*
X227663333Y-167314571D01*
X227615714Y-167409809D01*
X228568095Y-166933619D02*
X228615714Y-166886000D01*
X228710952Y-166838380D01*
X228949047Y-166838380D01*
X229044285Y-166886000D01*
X229091904Y-166933619D01*
X229139523Y-167028857D01*
X229139523Y-167124095D01*
X229091904Y-167266952D01*
X228520476Y-167838380D01*
X229139523Y-167838380D01*
X244570476Y-167790761D02*
X244713333Y-167838380D01*
X244951428Y-167838380D01*
X245046666Y-167790761D01*
X245094285Y-167743142D01*
X245141904Y-167647904D01*
X245141904Y-167552666D01*
X245094285Y-167457428D01*
X245046666Y-167409809D01*
X244951428Y-167362190D01*
X244760952Y-167314571D01*
X244665714Y-167266952D01*
X244618095Y-167219333D01*
X244570476Y-167124095D01*
X244570476Y-167028857D01*
X244618095Y-166933619D01*
X244665714Y-166886000D01*
X244760952Y-166838380D01*
X244999047Y-166838380D01*
X245141904Y-166886000D01*
X245475238Y-166838380D02*
X245713333Y-167838380D01*
X245903809Y-167124095D01*
X246094285Y-167838380D01*
X246332380Y-166838380D01*
X247141904Y-166838380D02*
X246951428Y-166838380D01*
X246856190Y-166886000D01*
X246808571Y-166933619D01*
X246713333Y-167076476D01*
X246665714Y-167266952D01*
X246665714Y-167647904D01*
X246713333Y-167743142D01*
X246760952Y-167790761D01*
X246856190Y-167838380D01*
X247046666Y-167838380D01*
X247141904Y-167790761D01*
X247189523Y-167743142D01*
X247237142Y-167647904D01*
X247237142Y-167409809D01*
X247189523Y-167314571D01*
X247141904Y-167266952D01*
X247046666Y-167219333D01*
X246856190Y-167219333D01*
X246760952Y-167266952D01*
X246713333Y-167314571D01*
X246665714Y-167409809D01*
X247570476Y-166838380D02*
X248189523Y-166838380D01*
X247856190Y-167219333D01*
X247999047Y-167219333D01*
X248094285Y-167266952D01*
X248141904Y-167314571D01*
X248189523Y-167409809D01*
X248189523Y-167647904D01*
X248141904Y-167743142D01*
X248094285Y-167790761D01*
X247999047Y-167838380D01*
X247713333Y-167838380D01*
X247618095Y-167790761D01*
X247570476Y-167743142D01*
X263620476Y-167790761D02*
X263763333Y-167838380D01*
X264001428Y-167838380D01*
X264096666Y-167790761D01*
X264144285Y-167743142D01*
X264191904Y-167647904D01*
X264191904Y-167552666D01*
X264144285Y-167457428D01*
X264096666Y-167409809D01*
X264001428Y-167362190D01*
X263810952Y-167314571D01*
X263715714Y-167266952D01*
X263668095Y-167219333D01*
X263620476Y-167124095D01*
X263620476Y-167028857D01*
X263668095Y-166933619D01*
X263715714Y-166886000D01*
X263810952Y-166838380D01*
X264049047Y-166838380D01*
X264191904Y-166886000D01*
X264525238Y-166838380D02*
X264763333Y-167838380D01*
X264953809Y-167124095D01*
X265144285Y-167838380D01*
X265382380Y-166838380D01*
X266191904Y-166838380D02*
X266001428Y-166838380D01*
X265906190Y-166886000D01*
X265858571Y-166933619D01*
X265763333Y-167076476D01*
X265715714Y-167266952D01*
X265715714Y-167647904D01*
X265763333Y-167743142D01*
X265810952Y-167790761D01*
X265906190Y-167838380D01*
X266096666Y-167838380D01*
X266191904Y-167790761D01*
X266239523Y-167743142D01*
X266287142Y-167647904D01*
X266287142Y-167409809D01*
X266239523Y-167314571D01*
X266191904Y-167266952D01*
X266096666Y-167219333D01*
X265906190Y-167219333D01*
X265810952Y-167266952D01*
X265763333Y-167314571D01*
X265715714Y-167409809D01*
X267144285Y-167171714D02*
X267144285Y-167838380D01*
X266906190Y-166790761D02*
X266668095Y-167505047D01*
X267287142Y-167505047D01*
X282670476Y-167790761D02*
X282813333Y-167838380D01*
X283051428Y-167838380D01*
X283146666Y-167790761D01*
X283194285Y-167743142D01*
X283241904Y-167647904D01*
X283241904Y-167552666D01*
X283194285Y-167457428D01*
X283146666Y-167409809D01*
X283051428Y-167362190D01*
X282860952Y-167314571D01*
X282765714Y-167266952D01*
X282718095Y-167219333D01*
X282670476Y-167124095D01*
X282670476Y-167028857D01*
X282718095Y-166933619D01*
X282765714Y-166886000D01*
X282860952Y-166838380D01*
X283099047Y-166838380D01*
X283241904Y-166886000D01*
X283575238Y-166838380D02*
X283813333Y-167838380D01*
X284003809Y-167124095D01*
X284194285Y-167838380D01*
X284432380Y-166838380D01*
X285241904Y-166838380D02*
X285051428Y-166838380D01*
X284956190Y-166886000D01*
X284908571Y-166933619D01*
X284813333Y-167076476D01*
X284765714Y-167266952D01*
X284765714Y-167647904D01*
X284813333Y-167743142D01*
X284860952Y-167790761D01*
X284956190Y-167838380D01*
X285146666Y-167838380D01*
X285241904Y-167790761D01*
X285289523Y-167743142D01*
X285337142Y-167647904D01*
X285337142Y-167409809D01*
X285289523Y-167314571D01*
X285241904Y-167266952D01*
X285146666Y-167219333D01*
X284956190Y-167219333D01*
X284860952Y-167266952D01*
X284813333Y-167314571D01*
X284765714Y-167409809D01*
X286241904Y-166838380D02*
X285765714Y-166838380D01*
X285718095Y-167314571D01*
X285765714Y-167266952D01*
X285860952Y-167219333D01*
X286099047Y-167219333D01*
X286194285Y-167266952D01*
X286241904Y-167314571D01*
X286289523Y-167409809D01*
X286289523Y-167647904D01*
X286241904Y-167743142D01*
X286194285Y-167790761D01*
X286099047Y-167838380D01*
X285860952Y-167838380D01*
X285765714Y-167790761D01*
X285718095Y-167743142D01*
X301720476Y-167790761D02*
X301863333Y-167838380D01*
X302101428Y-167838380D01*
X302196666Y-167790761D01*
X302244285Y-167743142D01*
X302291904Y-167647904D01*
X302291904Y-167552666D01*
X302244285Y-167457428D01*
X302196666Y-167409809D01*
X302101428Y-167362190D01*
X301910952Y-167314571D01*
X301815714Y-167266952D01*
X301768095Y-167219333D01*
X301720476Y-167124095D01*
X301720476Y-167028857D01*
X301768095Y-166933619D01*
X301815714Y-166886000D01*
X301910952Y-166838380D01*
X302149047Y-166838380D01*
X302291904Y-166886000D01*
X302625238Y-166838380D02*
X302863333Y-167838380D01*
X303053809Y-167124095D01*
X303244285Y-167838380D01*
X303482380Y-166838380D01*
X304291904Y-166838380D02*
X304101428Y-166838380D01*
X304006190Y-166886000D01*
X303958571Y-166933619D01*
X303863333Y-167076476D01*
X303815714Y-167266952D01*
X303815714Y-167647904D01*
X303863333Y-167743142D01*
X303910952Y-167790761D01*
X304006190Y-167838380D01*
X304196666Y-167838380D01*
X304291904Y-167790761D01*
X304339523Y-167743142D01*
X304387142Y-167647904D01*
X304387142Y-167409809D01*
X304339523Y-167314571D01*
X304291904Y-167266952D01*
X304196666Y-167219333D01*
X304006190Y-167219333D01*
X303910952Y-167266952D01*
X303863333Y-167314571D01*
X303815714Y-167409809D01*
X305244285Y-166838380D02*
X305053809Y-166838380D01*
X304958571Y-166886000D01*
X304910952Y-166933619D01*
X304815714Y-167076476D01*
X304768095Y-167266952D01*
X304768095Y-167647904D01*
X304815714Y-167743142D01*
X304863333Y-167790761D01*
X304958571Y-167838380D01*
X305149047Y-167838380D01*
X305244285Y-167790761D01*
X305291904Y-167743142D01*
X305339523Y-167647904D01*
X305339523Y-167409809D01*
X305291904Y-167314571D01*
X305244285Y-167266952D01*
X305149047Y-167219333D01*
X304958571Y-167219333D01*
X304863333Y-167266952D01*
X304815714Y-167314571D01*
X304768095Y-167409809D01*
X320770476Y-167790761D02*
X320913333Y-167838380D01*
X321151428Y-167838380D01*
X321246666Y-167790761D01*
X321294285Y-167743142D01*
X321341904Y-167647904D01*
X321341904Y-167552666D01*
X321294285Y-167457428D01*
X321246666Y-167409809D01*
X321151428Y-167362190D01*
X320960952Y-167314571D01*
X320865714Y-167266952D01*
X320818095Y-167219333D01*
X320770476Y-167124095D01*
X320770476Y-167028857D01*
X320818095Y-166933619D01*
X320865714Y-166886000D01*
X320960952Y-166838380D01*
X321199047Y-166838380D01*
X321341904Y-166886000D01*
X321675238Y-166838380D02*
X321913333Y-167838380D01*
X322103809Y-167124095D01*
X322294285Y-167838380D01*
X322532380Y-166838380D01*
X323341904Y-166838380D02*
X323151428Y-166838380D01*
X323056190Y-166886000D01*
X323008571Y-166933619D01*
X322913333Y-167076476D01*
X322865714Y-167266952D01*
X322865714Y-167647904D01*
X322913333Y-167743142D01*
X322960952Y-167790761D01*
X323056190Y-167838380D01*
X323246666Y-167838380D01*
X323341904Y-167790761D01*
X323389523Y-167743142D01*
X323437142Y-167647904D01*
X323437142Y-167409809D01*
X323389523Y-167314571D01*
X323341904Y-167266952D01*
X323246666Y-167219333D01*
X323056190Y-167219333D01*
X322960952Y-167266952D01*
X322913333Y-167314571D01*
X322865714Y-167409809D01*
X323770476Y-166838380D02*
X324437142Y-166838380D01*
X324008571Y-167838380D01*
M02*
